<svg width="94" height="36" viewBox="0 0 94 36" fill="none" xmlns="http://www.w3.org/2000/svg">
<rect width="94" height="36" rx="18" fill="#F0BA4E"/>
<path d="M27.0302 18.3636C27.0302 19.1567 26.8799 19.8314 26.5792 20.3878C26.2809 20.9441 25.8737 21.3691 25.3576 21.6626C24.8439 21.9538 24.2662 22.0994 23.6246 22.0994C22.9783 22.0994 22.3983 21.9527 21.8846 21.6591C21.3709 21.3655 20.9648 20.9406 20.6665 20.3842C20.3683 19.8279 20.2191 19.1544 20.2191 18.3636C20.2191 17.5705 20.3683 16.8958 20.6665 16.3395C20.9648 15.7831 21.3709 15.3594 21.8846 15.0682C22.3983 14.7746 22.9783 14.6278 23.6246 14.6278C24.2662 14.6278 24.8439 14.7746 25.3576 15.0682C25.8737 15.3594 26.2809 15.7831 26.5792 16.3395C26.8799 16.8958 27.0302 17.5705 27.0302 18.3636ZM25.4712 18.3636C25.4712 17.8499 25.3943 17.4167 25.2404 17.0639C25.0889 16.7112 24.8746 16.4437 24.5977 16.2614C24.3207 16.0791 23.9963 15.9879 23.6246 15.9879C23.253 15.9879 22.9286 16.0791 22.6516 16.2614C22.3746 16.4437 22.1592 16.7112 22.0053 17.0639C21.8538 17.4167 21.7781 17.8499 21.7781 18.3636C21.7781 18.8774 21.8538 19.3106 22.0053 19.6634C22.1592 20.0161 22.3746 20.2836 22.6516 20.4659C22.9286 20.6482 23.253 20.7393 23.6246 20.7393C23.9963 20.7393 24.3207 20.6482 24.5977 20.4659C24.8746 20.2836 25.0889 20.0161 25.2404 19.6634C25.3943 19.3106 25.4712 18.8774 25.4712 18.3636ZM27.8567 17.7351V16.5455H32.7999V17.7351H31.0421V22H29.6003V17.7351H27.8567ZM33.717 22V16.5455H38.4862V22H37.0408V17.7351H35.1445V22H33.717ZM39.6935 24.0455V16.5455H41.185V17.4616H41.2525C41.3188 17.3149 41.4147 17.1657 41.5401 17.0142C41.668 16.8603 41.8337 16.7325 42.0373 16.6307C42.2433 16.5265 42.4989 16.4744 42.8043 16.4744C43.2021 16.4744 43.569 16.5786 43.9052 16.7869C44.2414 16.9929 44.5101 17.3042 44.7113 17.7209C44.9125 18.1352 45.0131 18.6548 45.0131 19.2798C45.0131 19.8883 44.9149 20.402 44.7184 20.821C44.5243 21.2377 44.2591 21.5537 43.9229 21.7692C43.5891 21.9822 43.2151 22.0888 42.8008 22.0888C42.5072 22.0888 42.2575 22.0402 42.0515 21.9432C41.8479 21.8461 41.681 21.7242 41.5508 21.5774C41.4206 21.4283 41.3211 21.2779 41.2525 21.1264H41.2063V24.0455H39.6935ZM41.1744 19.2727C41.1744 19.5971 41.2193 19.88 41.3093 20.1214C41.3993 20.3629 41.5295 20.5511 41.6999 20.6861C41.8704 20.8187 42.0775 20.8849 42.3214 20.8849C42.5676 20.8849 42.7759 20.8175 42.9464 20.6825C43.1168 20.5452 43.2459 20.3558 43.3335 20.1143C43.4234 19.8705 43.4684 19.59 43.4684 19.2727C43.4684 18.9579 43.4246 18.6809 43.337 18.4418C43.2494 18.2027 43.1204 18.0156 42.9499 17.8807C42.7795 17.7457 42.57 17.6783 42.3214 17.6783C42.0752 17.6783 41.8668 17.7434 41.6964 17.8736C41.5283 18.0038 41.3993 18.1884 41.3093 18.4276C41.2193 18.6667 41.1744 18.9484 41.1744 19.2727ZM47.5771 22.103C47.229 22.103 46.9189 22.0426 46.6467 21.9219C46.3744 21.7988 46.159 21.6177 46.0004 21.3786C45.8441 21.1371 45.766 20.8364 45.766 20.4766C45.766 20.1735 45.8216 19.919 45.9329 19.7131C46.0442 19.5071 46.1957 19.3414 46.3874 19.2159C46.5792 19.0904 46.797 18.9957 47.0408 18.9318C47.2871 18.8679 47.5451 18.8229 47.815 18.7969C48.1322 18.7637 48.3879 18.733 48.582 18.7045C48.7762 18.6738 48.917 18.6288 49.0046 18.5696C49.0922 18.5104 49.136 18.4228 49.136 18.3068V18.2855C49.136 18.0606 49.065 17.8866 48.9229 17.7635C48.7833 17.6404 48.5844 17.5788 48.3263 17.5788C48.0541 17.5788 47.8375 17.6392 47.6765 17.7599C47.5155 17.8783 47.409 18.0275 47.3569 18.2074L45.9577 18.0938C46.0288 17.7623 46.1684 17.4759 46.3768 17.2344C46.5851 16.9905 46.8538 16.8035 47.1829 16.6733C47.5143 16.5407 47.8978 16.4744 48.3335 16.4744C48.6365 16.4744 48.9265 16.5099 49.2035 16.581C49.4828 16.652 49.7302 16.7621 49.9457 16.9112C50.1635 17.0604 50.3351 17.2521 50.4606 17.4865C50.5861 17.7185 50.6488 17.9967 50.6488 18.321V22H49.2141V21.2436H49.1715C49.0839 21.4141 48.9667 21.5644 48.82 21.6946C48.6732 21.8224 48.4968 21.9231 48.2908 21.9964C48.0849 22.0675 47.8469 22.103 47.5771 22.103ZM48.0103 21.0589C48.2328 21.0589 48.4293 21.0152 48.5998 20.9276C48.7702 20.8376 48.904 20.7169 49.0011 20.5653C49.0981 20.4138 49.1467 20.2422 49.1467 20.0504V19.4716C49.0993 19.5024 49.0342 19.5308 48.9513 19.5568C48.8709 19.5805 48.7797 19.603 48.6779 19.6243C48.5761 19.6432 48.4743 19.661 48.3725 19.6776C48.2707 19.6918 48.1784 19.7048 48.0955 19.7166C47.918 19.7427 47.7629 19.7841 47.6303 19.8409C47.4978 19.8977 47.3948 19.9747 47.3214 20.0717C47.248 20.1664 47.2113 20.2848 47.2113 20.4268C47.2113 20.6328 47.2859 20.7902 47.435 20.8991C47.5865 21.0057 47.7783 21.0589 48.0103 21.0589ZM51.8224 22V16.5455H54.1484C54.8208 16.5455 55.3523 16.6733 55.7429 16.929C56.1335 17.1847 56.3288 17.5481 56.3288 18.0192C56.3288 18.3151 56.2188 18.5613 55.9986 18.7578C55.7784 18.9543 55.473 19.0869 55.0824 19.1555C55.4091 19.1792 55.6873 19.2538 55.9169 19.3793C56.1489 19.5024 56.3253 19.6622 56.446 19.8587C56.5691 20.0552 56.6307 20.273 56.6307 20.5121C56.6307 20.8222 56.5478 21.0885 56.3821 21.3111C56.2188 21.5336 55.9785 21.7041 55.6612 21.8224C55.3464 21.9408 54.9616 22 54.5071 22H51.8224ZM53.2322 20.8672H54.5071C54.7178 20.8672 54.8823 20.8175 55.0007 20.718C55.1214 20.6162 55.1818 20.4777 55.1818 20.3026C55.1818 20.1084 55.1214 19.9557 55.0007 19.8445C54.8823 19.7332 54.7178 19.6776 54.5071 19.6776H53.2322V20.8672ZM53.2322 18.7898H54.1804C54.3319 18.7898 54.4609 18.7685 54.5675 18.7259C54.6764 18.6809 54.7592 18.617 54.8161 18.5341C54.8752 18.4512 54.9048 18.353 54.9048 18.2393C54.9048 18.0713 54.8374 17.9399 54.7024 17.8452C54.5675 17.7505 54.3828 17.7031 54.1484 17.7031H53.2322V18.7898ZM59.0295 20.0043L60.9933 16.5455H62.4847V22H61.043V18.5305L59.0863 22H57.5842V16.5455H59.0295V20.0043ZM63.1497 17.7351V16.5455H68.0929V17.7351H66.335V22H64.8933V17.7351H63.1497ZM69.9581 18.2216H71.5881C72.3101 18.2216 72.8736 18.3944 73.2784 18.7401C73.6832 19.0833 73.8857 19.5426 73.8857 20.1179C73.8857 20.492 73.7945 20.821 73.6122 21.1051C73.4299 21.3868 73.1671 21.607 72.8239 21.7656C72.4806 21.9219 72.0687 22 71.5881 22H69.0099V16.5455H70.4553V20.8104H71.5881C71.8414 20.8104 72.0497 20.7464 72.2131 20.6186C72.3764 20.4908 72.4593 20.3274 72.4616 20.1286C72.4593 19.9179 72.3764 19.7462 72.2131 19.6136C72.0497 19.4787 71.8414 19.4112 71.5881 19.4112H69.9581V18.2216Z" fill="white"/>
</svg>
