<svg width="261" height="53" viewBox="0 0 261 53" fill="none" xmlns="http://www.w3.org/2000/svg">
<path d="M8.18182 15L4.27273 9.78409H3.03409V15H1.27841V3.36364H3.03409V8.27841H3.60795L8.00568 3.36364H10.1477L5.49432 8.57386L10.3239 15H8.18182ZM14.8494 15.1761C14.0313 15.1761 13.3172 14.9886 12.7074 14.6136C12.0975 14.2386 11.6241 13.714 11.2869 13.0398C10.9498 12.3655 10.7812 11.5777 10.7812 10.6761C10.7812 9.77083 10.9498 8.97917 11.2869 8.30114C11.6241 7.62311 12.0975 7.09659 12.7074 6.72159C13.3172 6.34659 14.0313 6.15909 14.8494 6.15909C15.6676 6.15909 16.3816 6.34659 16.9915 6.72159C17.6013 7.09659 18.0748 7.62311 18.4119 8.30114C18.7491 8.97917 18.9176 9.77083 18.9176 10.6761C18.9176 11.5777 18.7491 12.3655 18.4119 13.0398C18.0748 13.714 17.6013 14.2386 16.9915 14.6136C16.3816 14.9886 15.6676 15.1761 14.8494 15.1761ZM14.8551 13.75C15.3854 13.75 15.8248 13.6098 16.1733 13.3295C16.5218 13.0492 16.7794 12.6761 16.946 12.2102C17.1165 11.7443 17.2017 11.2311 17.2017 10.6705C17.2017 10.1136 17.1165 9.60227 16.946 9.13636C16.7794 8.66667 16.5218 8.28977 16.1733 8.00568C15.8248 7.72159 15.3854 7.57955 14.8551 7.57955C14.321 7.57955 13.8778 7.72159 13.5256 8.00568C13.1771 8.28977 12.9176 8.66667 12.7472 9.13636C12.5805 9.60227 12.4972 10.1136 12.4972 10.6705C12.4972 11.2311 12.5805 11.7443 12.7472 12.2102C12.9176 12.6761 13.1771 13.0492 13.5256 13.3295C13.8778 13.6098 14.321 13.75 14.8551 13.75ZM20.1264 15L20.1207 13.5284H20.4332C20.6757 13.5284 20.8783 13.4773 21.0412 13.375C21.2079 13.2689 21.3442 13.0909 21.4503 12.8409C21.5563 12.5909 21.6378 12.2462 21.6946 11.8068C21.7514 11.3636 21.7931 10.8068 21.8196 10.1364L21.973 6.27273H28.0639V15H26.3991V7.73864H23.5469L23.4105 10.7045C23.3764 11.4242 23.3026 12.053 23.1889 12.5909C23.0791 13.1288 22.9181 13.5777 22.706 13.9375C22.4938 14.2936 22.2211 14.5606 21.8878 14.7386C21.5545 14.9129 21.1491 15 20.6719 15H20.1264ZM31.9943 12.6193L35.8409 6.27273H37.6705V15H36.0057V8.64773L32.1761 15H30.3295V6.27273H31.9943V12.6193ZM46.9602 6.27273V15H45.3011V6.27273H46.9602ZM46.2386 10.3239V11.7898C45.9773 11.8958 45.7008 11.9905 45.4091 12.0739C45.1174 12.1534 44.8106 12.2159 44.4886 12.2614C44.1667 12.3068 43.8314 12.3295 43.483 12.3295C42.4034 12.3295 41.5455 12.0663 40.9091 11.5398C40.2727 11.0095 39.9545 10.1989 39.9545 9.10795V6.25568H41.608V9.10795C41.608 9.52083 41.6837 9.85606 41.8352 10.1136C41.9867 10.3712 42.2027 10.5606 42.483 10.6818C42.7633 10.803 43.0966 10.8636 43.483 10.8636C43.9943 10.8636 44.4659 10.8163 44.8977 10.7216C45.3333 10.6231 45.7803 10.4905 46.2386 10.3239ZM52.9815 15.1761C52.1217 15.1761 51.3812 14.9924 50.7599 14.625C50.1425 14.2538 49.6652 13.733 49.3281 13.0625C48.9948 12.3883 48.8281 11.5985 48.8281 10.6932C48.8281 9.79924 48.9948 9.01136 49.3281 8.32955C49.6652 7.64773 50.1349 7.11553 50.7372 6.73295C51.3433 6.35038 52.0516 6.15909 52.8622 6.15909C53.3546 6.15909 53.8319 6.24053 54.294 6.40341C54.7562 6.56629 55.1709 6.82197 55.5384 7.17045C55.9058 7.51894 56.1955 7.97159 56.4077 8.52841C56.6198 9.08144 56.7259 9.75379 56.7259 10.5455V11.1477H49.7884V9.875H55.0611C55.0611 9.42803 54.9702 9.0322 54.7884 8.6875C54.6065 8.33902 54.3509 8.06439 54.0213 7.86364C53.6955 7.66288 53.313 7.5625 52.8736 7.5625C52.3963 7.5625 51.9796 7.67992 51.6236 7.91477C51.2713 8.14583 50.9986 8.44886 50.8054 8.82386C50.616 9.19508 50.5213 9.59848 50.5213 10.0341V11.0284C50.5213 11.6117 50.6236 12.108 50.8281 12.517C51.0365 12.9261 51.3262 13.2386 51.6974 13.4545C52.0687 13.6667 52.5024 13.7727 52.9986 13.7727C53.3205 13.7727 53.6141 13.7273 53.8793 13.6364C54.1444 13.5417 54.3736 13.4015 54.5668 13.2159C54.7599 13.0303 54.9077 12.8011 55.0099 12.5284L56.6179 12.8182C56.4891 13.2917 56.258 13.7064 55.9247 14.0625C55.5952 14.4148 55.1804 14.6894 54.6804 14.8864C54.1842 15.0795 53.6179 15.1761 52.9815 15.1761ZM62.2869 15.1761C61.4422 15.1761 60.715 14.9848 60.1051 14.6023C59.4991 14.2159 59.0331 13.6837 58.7074 13.0057C58.3816 12.3277 58.2188 11.5511 58.2188 10.6761C58.2188 9.78977 58.3854 9.00758 58.7188 8.32955C59.0521 7.64773 59.5218 7.11553 60.1278 6.73295C60.7339 6.35038 61.4479 6.15909 62.2699 6.15909C62.9328 6.15909 63.5237 6.2822 64.0426 6.52841C64.5616 6.77083 64.9801 7.11174 65.2983 7.55114C65.6203 7.99053 65.8116 8.50379 65.8722 9.09091H64.2188C64.1278 8.68182 63.9195 8.32955 63.5938 8.03409C63.2718 7.73864 62.84 7.59091 62.2983 7.59091C61.8248 7.59091 61.41 7.71591 61.054 7.96591C60.7017 8.21212 60.4271 8.56439 60.2301 9.02273C60.0331 9.47727 59.9347 10.0152 59.9347 10.6364C59.9347 11.2727 60.0313 11.822 60.2244 12.2841C60.4176 12.7462 60.6903 13.1042 61.0426 13.358C61.3987 13.6117 61.8172 13.7386 62.2983 13.7386C62.6203 13.7386 62.9119 13.6799 63.1733 13.5625C63.4384 13.4413 63.66 13.2689 63.8381 13.0455C64.0199 12.822 64.1468 12.553 64.2188 12.2386H65.8722C65.8116 12.803 65.6278 13.3068 65.321 13.75C65.0142 14.1932 64.6032 14.5417 64.0881 14.7955C63.5767 15.0492 62.9763 15.1761 62.2869 15.1761ZM67.0284 7.73864V6.27273H74.392V7.73864H71.5455V15H69.8864V7.73864H67.0284ZM76.1889 15V6.27273H79.8082C80.7931 6.27273 81.5734 6.48295 82.1491 6.90341C82.7249 7.32008 83.0128 7.88636 83.0128 8.60227C83.0128 9.11364 82.8499 9.51894 82.5241 9.81818C82.1984 10.1174 81.7666 10.3182 81.2287 10.4205C81.6188 10.4659 81.9768 10.5833 82.3026 10.7727C82.6283 10.9583 82.8897 11.2083 83.0866 11.5227C83.2874 11.8371 83.3878 12.2121 83.3878 12.6477C83.3878 13.1098 83.2685 13.5189 83.0298 13.875C82.7912 14.2273 82.4446 14.5038 81.9901 14.7045C81.5393 14.9015 80.9957 15 80.3594 15H76.1889ZM77.7855 13.5795H80.3594C80.7798 13.5795 81.1094 13.4792 81.348 13.2784C81.5866 13.0777 81.706 12.8049 81.706 12.4602C81.706 12.0549 81.5866 11.7367 81.348 11.5057C81.1094 11.2708 80.7798 11.1534 80.3594 11.1534H77.7855V13.5795ZM77.7855 9.90909H79.8253C80.1435 9.90909 80.4162 9.86364 80.6435 9.77273C80.8745 9.68182 81.0507 9.55303 81.1719 9.38636C81.2969 9.21591 81.3594 9.01515 81.3594 8.78409C81.3594 8.44697 81.2211 8.18371 80.9446 7.99432C80.6681 7.80492 80.2893 7.71023 79.8082 7.71023H77.7855V9.90909ZM88.9276 15.1761C88.1094 15.1761 87.3954 14.9886 86.7855 14.6136C86.1757 14.2386 85.7022 13.714 85.3651 13.0398C85.0279 12.3655 84.8594 11.5777 84.8594 10.6761C84.8594 9.77083 85.0279 8.97917 85.3651 8.30114C85.7022 7.62311 86.1757 7.09659 86.7855 6.72159C87.3954 6.34659 88.1094 6.15909 88.9276 6.15909C89.7457 6.15909 90.4598 6.34659 91.0696 6.72159C91.6795 7.09659 92.1529 7.62311 92.4901 8.30114C92.8272 8.97917 92.9957 9.77083 92.9957 10.6761C92.9957 11.5777 92.8272 12.3655 92.4901 13.0398C92.1529 13.714 91.6795 14.2386 91.0696 14.6136C90.4598 14.9886 89.7457 15.1761 88.9276 15.1761ZM88.9332 13.75C89.4635 13.75 89.9029 13.6098 90.2514 13.3295C90.5999 13.0492 90.8575 12.6761 91.0241 12.2102C91.1946 11.7443 91.2798 11.2311 91.2798 10.6705C91.2798 10.1136 91.1946 9.60227 91.0241 9.13636C90.8575 8.66667 90.5999 8.28977 90.2514 8.00568C89.9029 7.72159 89.4635 7.57955 88.9332 7.57955C88.3991 7.57955 87.956 7.72159 87.6037 8.00568C87.2552 8.28977 86.9957 8.66667 86.8253 9.13636C86.6586 9.60227 86.5753 10.1136 86.5753 10.6705C86.5753 11.2311 86.6586 11.7443 86.8253 12.2102C86.9957 12.6761 87.2552 13.0492 87.6037 13.3295C87.956 13.6098 88.3991 13.75 88.9332 13.75Z" fill="#3C3C3B"/>
<path d="M6.22727 38.3864V39.6364H1.13636V38.3864H6.22727Z" fill="#3C3C3B"/>
<path d="M30.9176 33.4545V48H28.7159V35.6562H28.6307L25.1506 37.929V35.8267L28.7798 33.4545H30.9176Z" fill="#3C3C3B"/>
<path d="M54.6364 43.2045V35.7045H55.9091V43.2045H54.6364ZM51.5227 40.0909V38.8182H59.0227V40.0909H51.5227Z" fill="#3C3C3B"/>
<rect x="126.5" y="3.5" width="134" height="46" rx="23" stroke="#F0BA4E"/>
<path d="M155.278 32V20.3636H159.54C160.366 20.3636 161.049 20.5 161.591 20.7727C162.133 21.0417 162.538 21.4072 162.807 21.8693C163.076 22.3277 163.21 22.8447 163.21 23.4205C163.21 23.9053 163.121 24.3144 162.943 24.6477C162.765 24.9773 162.527 25.2424 162.227 25.4432C161.932 25.6402 161.606 25.7841 161.25 25.875V25.9886C161.636 26.0076 162.013 26.1326 162.381 26.3636C162.752 26.5909 163.059 26.9148 163.301 27.3352C163.544 27.7557 163.665 28.267 163.665 28.8693C163.665 29.464 163.525 29.9981 163.244 30.4716C162.968 30.9413 162.54 31.3144 161.96 31.5909C161.381 31.8636 160.64 32 159.739 32H155.278ZM157.034 30.4943H159.568C160.409 30.4943 161.011 30.3314 161.375 30.0057C161.739 29.6799 161.92 29.2727 161.92 28.7841C161.92 28.4167 161.828 28.0795 161.642 27.7727C161.456 27.4659 161.191 27.2216 160.847 27.0398C160.506 26.858 160.1 26.767 159.631 26.767H157.034V30.4943ZM157.034 25.3977H159.386C159.78 25.3977 160.134 25.322 160.449 25.1705C160.767 25.0189 161.019 24.8068 161.205 24.5341C161.394 24.2576 161.489 23.9318 161.489 23.5568C161.489 23.0758 161.32 22.6723 160.983 22.3466C160.646 22.0208 160.129 21.858 159.432 21.858H157.034V25.3977ZM169.845 32V23.2727H171.544V26.9318H172.362L175.243 23.2727H177.345L173.964 27.517L177.385 32H175.277L172.646 28.5114H171.544V32H169.845ZM182.021 32.1761C181.203 32.1761 180.489 31.9886 179.879 31.6136C179.269 31.2386 178.796 30.714 178.459 30.0398C178.122 29.3655 177.953 28.5777 177.953 27.6761C177.953 26.7708 178.122 25.9792 178.459 25.3011C178.796 24.6231 179.269 24.0966 179.879 23.7216C180.489 23.3466 181.203 23.1591 182.021 23.1591C182.839 23.1591 183.554 23.3466 184.163 23.7216C184.773 24.0966 185.247 24.6231 185.584 25.3011C185.921 25.9792 186.089 26.7708 186.089 27.6761C186.089 28.5777 185.921 29.3655 185.584 30.0398C185.247 30.714 184.773 31.2386 184.163 31.6136C183.554 31.9886 182.839 32.1761 182.021 32.1761ZM182.027 30.75C182.557 30.75 182.997 30.6098 183.345 30.3295C183.694 30.0492 183.951 29.6761 184.118 29.2102C184.288 28.7443 184.374 28.2311 184.374 27.6705C184.374 27.1136 184.288 26.6023 184.118 26.1364C183.951 25.6667 183.694 25.2898 183.345 25.0057C182.997 24.7216 182.557 24.5795 182.027 24.5795C181.493 24.5795 181.05 24.7216 180.697 25.0057C180.349 25.2898 180.089 25.6667 179.919 26.1364C179.752 26.6023 179.669 27.1136 179.669 27.6705C179.669 28.2311 179.752 28.7443 179.919 29.2102C180.089 29.6761 180.349 30.0492 180.697 30.3295C181.05 30.6098 181.493 30.75 182.027 30.75ZM187.986 35.2727V23.2727H189.645V24.6875H189.787C189.885 24.5057 190.027 24.2955 190.213 24.0568C190.399 23.8182 190.656 23.6098 190.986 23.4318C191.315 23.25 191.751 23.1591 192.293 23.1591C192.997 23.1591 193.626 23.3371 194.179 23.6932C194.732 24.0492 195.166 24.5625 195.48 25.233C195.798 25.9034 195.957 26.7102 195.957 27.6534C195.957 28.5966 195.8 29.4053 195.486 30.0795C195.171 30.75 194.74 31.267 194.19 31.6307C193.641 31.9905 193.014 32.1705 192.31 32.1705C191.779 32.1705 191.346 32.0814 191.009 31.9034C190.675 31.7254 190.414 31.517 190.224 31.2784C190.035 31.0398 189.889 30.8277 189.787 30.642H189.685V35.2727H187.986ZM189.651 27.6364C189.651 28.25 189.74 28.7879 189.918 29.25C190.096 29.7121 190.353 30.0739 190.69 30.3352C191.027 30.5928 191.44 30.7216 191.929 30.7216C192.437 30.7216 192.861 30.5871 193.202 30.3182C193.543 30.0455 193.8 29.6761 193.974 29.2102C194.152 28.7443 194.241 28.2197 194.241 27.6364C194.241 27.0606 194.154 26.5436 193.98 26.0852C193.81 25.6269 193.552 25.2652 193.207 25C192.866 24.7348 192.44 24.6023 191.929 24.6023C191.437 24.6023 191.02 24.7292 190.679 24.983C190.342 25.2367 190.086 25.5909 189.912 26.0455C189.738 26.5 189.651 27.0303 189.651 27.6364ZM197.344 29.6932H199.082C199.105 30.0492 199.266 30.3239 199.565 30.517C199.868 30.7102 200.26 30.8068 200.741 30.8068C201.23 30.8068 201.647 30.7027 201.991 30.4943C202.336 30.2822 202.509 29.9545 202.509 29.5114C202.509 29.2462 202.442 29.0152 202.31 28.8182C202.181 28.6174 201.997 28.4621 201.759 28.3523C201.524 28.2424 201.245 28.1875 200.923 28.1875H199.503V26.8523H200.923C201.404 26.8523 201.764 26.7424 202.003 26.5227C202.241 26.303 202.361 26.0284 202.361 25.6989C202.361 25.3428 202.232 25.0568 201.974 24.8409C201.721 24.6212 201.366 24.5114 200.912 24.5114C200.45 24.5114 200.065 24.6155 199.759 24.8239C199.452 25.0284 199.291 25.2936 199.276 25.6193H197.56C197.571 25.1307 197.719 24.7027 198.003 24.3352C198.291 23.964 198.677 23.6761 199.162 23.4716C199.651 23.2633 200.205 23.1591 200.827 23.1591C201.474 23.1591 202.035 23.2633 202.509 23.4716C202.982 23.6799 203.348 23.9678 203.605 24.3352C203.866 24.7027 203.997 25.125 203.997 25.6023C203.997 26.0833 203.853 26.4773 203.565 26.7841C203.281 27.0871 202.91 27.3049 202.452 27.4375V27.5284C202.789 27.5511 203.088 27.6534 203.349 27.8352C203.611 28.017 203.815 28.2576 203.963 28.5568C204.111 28.8561 204.185 29.1951 204.185 29.5739C204.185 30.108 204.037 30.5701 203.741 30.9602C203.45 31.3504 203.045 31.6515 202.526 31.8636C202.01 32.072 201.421 32.1761 200.759 32.1761C200.115 32.1761 199.537 32.0758 199.026 31.875C198.518 31.6705 198.115 31.3826 197.815 31.0114C197.52 30.6402 197.363 30.2008 197.344 29.6932ZM207.604 29.6193L211.45 23.2727H213.28V32H211.615V25.6477L207.786 32H205.939V23.2727H207.604V29.6193ZM221.479 26.9034V28.375H216.751V26.9034H221.479ZM217.229 23.2727V32H215.564V23.2727H217.229ZM222.666 23.2727V32H221.007V23.2727H222.666ZM225.7 35.2727C225.446 35.2727 225.215 35.2519 225.007 35.2102C224.799 35.1723 224.643 35.1307 224.541 35.0852L224.95 33.6932C225.261 33.7765 225.537 33.8125 225.78 33.8011C226.022 33.7898 226.236 33.6989 226.422 33.5284C226.611 33.358 226.778 33.0795 226.922 32.6932L227.132 32.1136L223.939 23.2727H225.757L227.967 30.0455H228.058L230.268 23.2727H232.092L228.496 33.1648C228.329 33.6193 228.117 34.0038 227.859 34.3182C227.602 34.6364 227.295 34.875 226.939 35.0341C226.583 35.1932 226.17 35.2727 225.7 35.2727Z" fill="#3C3C3B"/>
</svg>
