<svg width="83" height="24" viewBox="0 0 83 24" fill="none" xmlns="http://www.w3.org/2000/svg">
<path fill-rule="evenodd" clip-rule="evenodd" d="M0 12C0 11.4477 0.447715 11 1 11H15C15.5523 11 16 11.4477 16 12C16 12.5523 15.5523 13 15 13H1C0.447715 13 0 12.5523 0 12Z" fill="#3C3C3B"/>
<path fill-rule="evenodd" clip-rule="evenodd" d="M0 16C0 15.4477 0.335786 15 0.75 15H11.25C11.6642 15 12 15.4477 12 16C12 16.5523 11.6642 17 11.25 17H0.75C0.335786 17 0 16.5523 0 16Z" fill="#3C3C3B"/>
<path fill-rule="evenodd" clip-rule="evenodd" d="M0 8C0 7.44772 0.447715 7 1 7H15C15.5523 7 16 7.44772 16 8C16 8.55228 15.5523 9 15 9H1C0.447715 9 0 8.55228 0 8Z" fill="#3C3C3B"/>
<path d="M33.1044 17.5L29.7536 13.0504H28.8487V17.5H27.0043V7.31818H28.8487V11.5043H29.3111L32.9304 7.31818H35.2024L31.1804 11.9616L35.3764 17.5H33.1044ZM38.7472 17.6541C38.2633 17.6541 37.8274 17.5679 37.4396 17.3956C37.0552 17.2199 36.7502 16.9614 36.5249 16.62C36.3028 16.2786 36.1918 15.8577 36.1918 15.3572C36.1918 14.9264 36.2713 14.5701 36.4304 14.2884C36.5895 14.0066 36.8066 13.7812 37.0817 13.6122C37.3568 13.4432 37.6667 13.3156 38.0114 13.2294C38.3594 13.1399 38.719 13.0753 39.0902 13.0355C39.5376 12.9891 39.9006 12.9477 40.179 12.9112C40.4574 12.8714 40.6596 12.8118 40.7855 12.7322C40.9148 12.6494 40.9794 12.5218 40.9794 12.3494V12.3196C40.9794 11.9451 40.8684 11.6551 40.6463 11.4496C40.4242 11.2441 40.1044 11.1413 39.6868 11.1413C39.246 11.1413 38.8963 11.2375 38.6378 11.4297C38.3826 11.6219 38.2102 11.849 38.1207 12.1108L36.4403 11.8722C36.5729 11.4081 36.7917 11.0204 37.0966 10.7088C37.4015 10.3939 37.7744 10.1586 38.2152 10.0028C38.656 9.84375 39.1432 9.7642 39.6768 9.7642C40.0447 9.7642 40.411 9.80729 40.7756 9.89347C41.1402 9.97964 41.4732 10.1222 41.7749 10.321C42.0765 10.5166 42.3184 10.7834 42.5007 11.1214C42.6863 11.4595 42.7791 11.8821 42.7791 12.3892V17.5H41.049V16.451H40.9893C40.88 16.6631 40.7259 16.862 40.527 17.0476C40.3314 17.2299 40.0845 17.3774 39.7862 17.4901C39.4912 17.5994 39.1449 17.6541 38.7472 17.6541ZM39.2145 16.3317C39.5758 16.3317 39.889 16.2604 40.1541 16.1179C40.4193 15.9721 40.6231 15.7798 40.7656 15.5412C40.9115 15.3026 40.9844 15.0424 40.9844 14.7607V13.8608C40.928 13.9072 40.8319 13.9503 40.696 13.9901C40.5634 14.0298 40.4143 14.0646 40.2486 14.0945C40.0829 14.1243 39.9188 14.1508 39.7564 14.174C39.594 14.1972 39.4531 14.2171 39.3338 14.2337C39.0653 14.2701 38.825 14.3298 38.6129 14.4126C38.4008 14.4955 38.2334 14.6115 38.1108 14.7607C37.9882 14.9065 37.9268 15.0954 37.9268 15.3274C37.9268 15.6589 38.0478 15.9091 38.2898 16.0781C38.5317 16.2472 38.84 16.3317 39.2145 16.3317ZM43.7337 11.3402V9.86364H50.4155V11.3402H47.9446V17.5H46.2045V11.3402H43.7337ZM53.7315 17.6541C53.2476 17.6541 52.8118 17.5679 52.424 17.3956C52.0395 17.2199 51.7346 16.9614 51.5092 16.62C51.2872 16.2786 51.1761 15.8577 51.1761 15.3572C51.1761 14.9264 51.2557 14.5701 51.4148 14.2884C51.5739 14.0066 51.791 13.7812 52.0661 13.6122C52.3411 13.4432 52.651 13.3156 52.9957 13.2294C53.3438 13.1399 53.7034 13.0753 54.0746 13.0355C54.522 12.9891 54.8849 12.9477 55.1634 12.9112C55.4418 12.8714 55.6439 12.8118 55.7699 12.7322C55.8991 12.6494 55.9638 12.5218 55.9638 12.3494V12.3196C55.9638 11.9451 55.8527 11.6551 55.6307 11.4496C55.4086 11.2441 55.0888 11.1413 54.6712 11.1413C54.2304 11.1413 53.8807 11.2375 53.6222 11.4297C53.367 11.6219 53.1946 11.849 53.1051 12.1108L51.4247 11.8722C51.5573 11.4081 51.776 11.0204 52.081 10.7088C52.3859 10.3939 52.7588 10.1586 53.1996 10.0028C53.6404 9.84375 54.1276 9.7642 54.6612 9.7642C55.0291 9.7642 55.3954 9.80729 55.7599 9.89347C56.1245 9.97964 56.4576 10.1222 56.7592 10.321C57.0608 10.5166 57.3028 10.7834 57.4851 11.1214C57.6707 11.4595 57.7635 11.8821 57.7635 12.3892V17.5H56.0334V16.451H55.9737C55.8643 16.6631 55.7102 16.862 55.5114 17.0476C55.3158 17.2299 55.0689 17.3774 54.7706 17.4901C54.4756 17.5994 54.1293 17.6541 53.7315 17.6541ZM54.1989 16.3317C54.5601 16.3317 54.8733 16.2604 55.1385 16.1179C55.4036 15.9721 55.6075 15.7798 55.75 15.5412C55.8958 15.3026 55.9688 15.0424 55.9688 14.7607V13.8608C55.9124 13.9072 55.8163 13.9503 55.6804 13.9901C55.5478 14.0298 55.3987 14.0646 55.233 14.0945C55.0672 14.1243 54.9032 14.1508 54.7408 14.174C54.5784 14.1972 54.4375 14.2171 54.3182 14.2337C54.0497 14.2701 53.8094 14.3298 53.5973 14.4126C53.3852 14.4955 53.2178 14.6115 53.0952 14.7607C52.9725 14.9065 52.9112 15.0954 52.9112 15.3274C52.9112 15.6589 53.0322 15.9091 53.2741 16.0781C53.5161 16.2472 53.8243 16.3317 54.1989 16.3317ZM59.0462 17.5L59.0362 16.0185H59.2997C59.4986 16.0185 59.666 15.9737 59.8018 15.8842C59.9377 15.7947 60.0504 15.6456 60.1399 15.4368C60.2294 15.2247 60.299 14.9396 60.3487 14.5817C60.3984 14.2237 60.4332 13.7779 60.4531 13.2443L60.5874 9.86364H66.1555V17.5H64.4155V11.3402H62.223L62.1037 13.8011C62.0739 14.4375 62.0026 14.9893 61.8899 15.4567C61.7805 15.9207 61.6248 16.3035 61.4226 16.6051C61.2237 16.9067 60.9735 17.1321 60.6719 17.2812C60.3703 17.4271 60.014 17.5 59.603 17.5H59.0462ZM71.2987 17.6491C70.5529 17.6491 69.9066 17.4851 69.3597 17.157C68.8129 16.8288 68.3886 16.3698 68.087 15.7798C67.7887 15.1899 67.6396 14.5005 67.6396 13.7116C67.6396 12.9228 67.7887 12.2318 68.087 11.6385C68.3886 11.0452 68.8129 10.5845 69.3597 10.2564C69.9066 9.92827 70.5529 9.7642 71.2987 9.7642C72.0444 9.7642 72.6907 9.92827 73.2376 10.2564C73.7844 10.5845 74.207 11.0452 74.5053 11.6385C74.8069 12.2318 74.9577 12.9228 74.9577 13.7116C74.9577 14.5005 74.8069 15.1899 74.5053 15.7798C74.207 16.3698 73.7844 16.8288 73.2376 17.157C72.6907 17.4851 72.0444 17.6491 71.2987 17.6491ZM71.3086 16.2074C71.7129 16.2074 72.051 16.0964 72.3228 15.8743C72.5946 15.6489 72.7968 15.3473 72.9293 14.9695C73.0652 14.5916 73.1332 14.1707 73.1332 13.7067C73.1332 13.2393 73.0652 12.8168 72.9293 12.4389C72.7968 12.0578 72.5946 11.7545 72.3228 11.5291C72.051 11.3037 71.7129 11.1911 71.3086 11.1911C70.8943 11.1911 70.5496 11.3037 70.2745 11.5291C70.0027 11.7545 69.7989 12.0578 69.663 12.4389C69.5304 12.8168 69.4641 13.2393 69.4641 13.7067C69.4641 14.1707 69.5304 14.5916 69.663 14.9695C69.7989 15.3473 70.0027 15.6489 70.2745 15.8743C70.5496 16.0964 70.8943 16.2074 71.3086 16.2074ZM81.5364 9.86364V11.3402H78.2452V17.5H76.4853V9.86364H81.5364Z" fill="#3C3C3B"/>
</svg>
