<svg width="534" height="48" viewBox="0 0 534 48" fill="none" xmlns="http://www.w3.org/2000/svg">
<rect x="0.5" y="0.5" width="533" height="47" rx="23.5" stroke="#F0BA4E"/>
<path d="M35.3334 29.6666H28.6667C26.6667 29.6666 25.3334 28.6666 25.3334 26.3333V21.6666C25.3334 19.3333 26.6667 18.3333 28.6667 18.3333H35.3334C37.3334 18.3333 38.6667 19.3333 38.6667 21.6666V26.3333C38.6667 28.6666 37.3334 29.6666 35.3334 29.6666Z" stroke="white" stroke-opacity="0.6" stroke-miterlimit="10" stroke-linecap="round" stroke-linejoin="round"/>
<path d="M35.3333 22L33.2466 23.6667C32.56 24.2133 31.4333 24.2133 30.7466 23.6667L28.6666 22" stroke="white" stroke-opacity="0.6" stroke-miterlimit="10" stroke-linecap="round" stroke-linejoin="round"/>
<path d="M49.3439 28.5V19.7727H52.3951C53.003 19.7727 53.5044 19.8778 53.8993 20.0881C54.2942 20.2955 54.5882 20.5753 54.7814 20.9276C54.9746 21.277 55.0712 21.6648 55.0712 22.0909C55.0712 22.4659 55.0044 22.7756 54.8709 23.0199C54.7402 23.2642 54.5669 23.4574 54.351 23.5994C54.138 23.7415 53.9064 23.8466 53.6564 23.9148V24C53.9235 24.017 54.1919 24.1108 54.4618 24.2812C54.7317 24.4517 54.9576 24.696 55.1394 25.0142C55.3212 25.3324 55.4121 25.7216 55.4121 26.1818C55.4121 26.6193 55.3127 27.0128 55.1138 27.3622C54.915 27.7116 54.601 27.9886 54.1721 28.1932C53.7431 28.3977 53.1848 28.5 52.4973 28.5H49.3439ZM50.4007 27.5625H52.4973C53.1877 27.5625 53.6777 27.429 53.9675 27.1619C54.2601 26.892 54.4064 26.5653 54.4064 26.1818C54.4064 25.8864 54.3311 25.6136 54.1806 25.3636C54.03 25.1108 53.8155 24.9091 53.5371 24.7585C53.2587 24.6051 52.9292 24.5284 52.5485 24.5284H50.4007V27.5625ZM50.4007 23.608H52.361C52.6792 23.608 52.9661 23.5455 53.2218 23.4205C53.4803 23.2955 53.6848 23.1193 53.8354 22.892C53.9888 22.6648 54.0655 22.3977 54.0655 22.0909C54.0655 21.7074 53.932 21.3821 53.665 21.1151C53.3979 20.8452 52.9746 20.7102 52.3951 20.7102H50.4007V23.608ZM57.0123 28.5V21.9545H59.6884C60.3929 21.9545 60.9526 22.1136 61.3674 22.4318C61.7821 22.75 61.9895 23.1705 61.9895 23.6932C61.9895 24.0909 61.8716 24.3991 61.6358 24.6179C61.4 24.8338 61.0975 24.9801 60.7282 25.0568C60.9696 25.0909 61.204 25.1761 61.4313 25.3125C61.6614 25.4489 61.8517 25.6364 62.0023 25.875C62.1529 26.1108 62.2282 26.4006 62.2282 26.7443C62.2282 27.0795 62.1429 27.3793 61.9725 27.6435C61.802 27.9077 61.5577 28.1165 61.2395 28.2699C60.9213 28.4233 60.5407 28.5 60.0975 28.5H57.0123ZM57.9668 27.5795H60.0975C60.4441 27.5795 60.7154 27.4972 60.9114 27.3324C61.1074 27.1676 61.2054 26.9432 61.2054 26.6591C61.2054 26.321 61.1074 26.0554 60.9114 25.8622C60.7154 25.6662 60.4441 25.5682 60.0975 25.5682H57.9668V27.5795ZM57.9668 24.6989H59.6884C59.9583 24.6989 60.1898 24.6619 60.383 24.5881C60.5762 24.5114 60.7239 24.4034 60.8262 24.2642C60.9313 24.1222 60.9838 23.9545 60.9838 23.7614C60.9838 23.4858 60.8688 23.2699 60.6387 23.1136C60.4086 22.9545 60.0918 22.875 59.6884 22.875H57.9668V24.6989ZM66.4949 28.6364C65.8642 28.6364 65.3201 28.4972 64.8627 28.2188C64.4082 27.9375 64.0574 27.5455 63.8102 27.0426C63.5659 26.5369 63.4437 25.9489 63.4437 25.2784C63.4437 24.608 63.5659 24.017 63.8102 23.5057C64.0574 22.9915 64.4011 22.5909 64.8414 22.304C65.2846 22.0142 65.8017 21.8693 66.3926 21.8693C66.7335 21.8693 67.0701 21.9261 67.4025 22.0398C67.7349 22.1534 68.0375 22.3381 68.3102 22.5938C68.5829 22.8466 68.8002 23.1818 68.9622 23.5994C69.1241 24.017 69.2051 24.5312 69.2051 25.142V25.5682H64.1596V24.6989H68.1824C68.1824 24.3295 68.1085 24 67.9608 23.7102C67.8159 23.4205 67.6085 23.1918 67.3386 23.0241C67.0716 22.8565 66.7562 22.7727 66.3926 22.7727C65.992 22.7727 65.6454 22.8722 65.3528 23.071C65.063 23.267 64.84 23.5227 64.6838 23.8381C64.5275 24.1534 64.4494 24.4915 64.4494 24.8523V25.4318C64.4494 25.9261 64.5346 26.3452 64.7051 26.6889C64.8784 27.0298 65.1184 27.2898 65.4252 27.4688C65.7321 27.6449 66.0886 27.733 66.4949 27.733C66.7591 27.733 66.9977 27.696 67.2108 27.6222C67.4267 27.5455 67.6127 27.4318 67.769 27.2812C67.9252 27.1278 68.046 26.9375 68.1312 26.7102L69.1028 26.983C69.0005 27.3125 68.8287 27.6023 68.5872 27.8523C68.3457 28.0994 68.0474 28.2926 67.6923 28.4318C67.3372 28.5682 66.938 28.6364 66.4949 28.6364ZM70.036 30.375V27.5625H70.5815C70.715 27.4233 70.8301 27.2727 70.9267 27.1108C71.0233 26.9489 71.1071 26.7571 71.1781 26.5355C71.252 26.3111 71.3145 26.0384 71.3656 25.7173C71.4167 25.3935 71.4622 25.0028 71.502 24.5455L71.7235 21.9545H75.8826V27.5625H76.8883V30.375H75.8826V28.5H71.0417V30.375H70.036ZM71.7235 27.5625H74.877V22.892H72.661L72.4906 24.5455C72.4196 25.2301 72.3315 25.8281 72.2264 26.3395C72.1213 26.8509 71.9537 27.2585 71.7235 27.5625ZM79.2289 27.017L82.3823 21.9545H83.5414V28.5H82.5357V23.4375L79.3993 28.5H78.2232V21.9545H79.2289V27.017ZM84.4927 22.892V21.9545H89.8109V22.892H87.6632V28.5H86.6575V22.892H84.4927ZM93.6824 28.6364C93.0517 28.6364 92.5076 28.4972 92.0502 28.2188C91.5957 27.9375 91.2449 27.5455 90.9977 27.0426C90.7534 26.5369 90.6312 25.9489 90.6312 25.2784C90.6312 24.608 90.7534 24.017 90.9977 23.5057C91.2449 22.9915 91.5886 22.5909 92.0289 22.304C92.4721 22.0142 92.9892 21.8693 93.5801 21.8693C93.921 21.8693 94.2576 21.9261 94.59 22.0398C94.9224 22.1534 95.225 22.3381 95.4977 22.5938C95.7704 22.8466 95.9877 23.1818 96.1497 23.5994C96.3116 24.017 96.3926 24.5312 96.3926 25.142V25.5682H91.3471V24.6989H95.3699C95.3699 24.3295 95.296 24 95.1483 23.7102C95.0034 23.4205 94.796 23.1918 94.5261 23.0241C94.2591 22.8565 93.9437 22.7727 93.5801 22.7727C93.1795 22.7727 92.8329 22.8722 92.5403 23.071C92.2505 23.267 92.0275 23.5227 91.8713 23.8381C91.715 24.1534 91.6369 24.4915 91.6369 24.8523V25.4318C91.6369 25.9261 91.7221 26.3452 91.8926 26.6889C92.0659 27.0298 92.3059 27.2898 92.6127 27.4688C92.9196 27.6449 93.2761 27.733 93.6824 27.733C93.9466 27.733 94.1852 27.696 94.3983 27.6222C94.6142 27.5455 94.8002 27.4318 94.9565 27.2812C95.1127 27.1278 95.2335 26.9375 95.3187 26.7102L96.2903 26.983C96.188 27.3125 96.0162 27.6023 95.7747 27.8523C95.5332 28.0994 95.2349 28.2926 94.8798 28.4318C94.5247 28.5682 94.1255 28.6364 93.6824 28.6364ZM103.956 28.6364C103.343 28.6364 102.814 28.4915 102.371 28.2017C101.928 27.9119 101.587 27.5128 101.349 27.0043C101.11 26.4957 100.991 25.9148 100.991 25.2614C100.991 24.5966 101.113 24.0099 101.357 23.5014C101.604 22.9901 101.948 22.5909 102.388 22.304C102.831 22.0142 103.349 21.8693 103.939 21.8693C104.4 21.8693 104.814 21.9545 105.184 22.125C105.553 22.2955 105.856 22.5341 106.091 22.8409C106.327 23.1477 106.474 23.5057 106.53 23.9148H105.525C105.448 23.6165 105.278 23.3523 105.013 23.1222C104.752 22.8892 104.4 22.7727 103.956 22.7727C103.564 22.7727 103.221 22.875 102.925 23.0795C102.633 23.2812 102.404 23.5668 102.239 23.9361C102.077 24.3026 101.996 24.733 101.996 25.2273C101.996 25.733 102.076 26.1733 102.235 26.5483C102.397 26.9233 102.624 27.2145 102.917 27.4219C103.212 27.6293 103.559 27.733 103.956 27.733C104.218 27.733 104.455 27.6875 104.668 27.5966C104.881 27.5057 105.062 27.375 105.209 27.2045C105.357 27.0341 105.462 26.8295 105.525 26.5909H106.53C106.474 26.9773 106.333 27.3253 106.108 27.6349C105.887 27.9418 105.593 28.1861 105.226 28.3679C104.863 28.5469 104.439 28.6364 103.956 28.6364ZM108.001 28.5V21.9545H110.677C111.381 21.9545 111.941 22.1136 112.356 22.4318C112.77 22.75 112.978 23.1705 112.978 23.6932C112.978 24.0909 112.86 24.3991 112.624 24.6179C112.388 24.8338 112.086 24.9801 111.716 25.0568C111.958 25.0909 112.192 25.1761 112.42 25.3125C112.65 25.4489 112.84 25.6364 112.991 25.875C113.141 26.1108 113.216 26.4006 113.216 26.7443C113.216 27.0795 113.131 27.3793 112.961 27.6435C112.79 27.9077 112.546 28.1165 112.228 28.2699C111.91 28.4233 111.529 28.5 111.086 28.5H108.001ZM108.955 27.5795H111.086C111.432 27.5795 111.704 27.4972 111.9 27.3324C112.096 27.1676 112.194 26.9432 112.194 26.6591C112.194 26.321 112.096 26.0554 111.9 25.8622C111.704 25.6662 111.432 25.5682 111.086 25.5682H108.955V27.5795ZM108.955 24.6989H110.677C110.947 24.6989 111.178 24.6619 111.371 24.5881C111.564 24.5114 111.712 24.4034 111.814 24.2642C111.92 24.1222 111.972 23.9545 111.972 23.7614C111.972 23.4858 111.857 23.2699 111.627 23.1136C111.397 22.9545 111.08 22.875 110.677 22.875H108.955V24.6989ZM117.398 28.6364C116.807 28.6364 116.289 28.4957 115.843 28.2145C115.399 27.9332 115.053 27.5398 114.803 27.0341C114.556 26.5284 114.432 25.9375 114.432 25.2614C114.432 24.5795 114.556 23.9844 114.803 23.4759C115.053 22.9673 115.399 22.5724 115.843 22.2912C116.289 22.0099 116.807 21.8693 117.398 21.8693C117.989 21.8693 118.506 22.0099 118.949 22.2912C119.395 22.5724 119.742 22.9673 119.989 23.4759C120.239 23.9844 120.364 24.5795 120.364 25.2614C120.364 25.9375 120.239 26.5284 119.989 27.0341C119.742 27.5398 119.395 27.9332 118.949 28.2145C118.506 28.4957 117.989 28.6364 117.398 28.6364ZM117.398 27.733C117.847 27.733 118.216 27.6179 118.506 27.3878C118.796 27.1577 119.01 26.8551 119.149 26.4801C119.289 26.1051 119.358 25.6989 119.358 25.2614C119.358 24.8239 119.289 24.4162 119.149 24.0384C119.01 23.6605 118.796 23.3551 118.506 23.1222C118.216 22.8892 117.847 22.7727 117.398 22.7727C116.949 22.7727 116.58 22.8892 116.29 23.1222C116 23.3551 115.786 23.6605 115.646 24.0384C115.507 24.4162 115.438 24.8239 115.438 25.2614C115.438 25.6989 115.507 26.1051 115.646 26.4801C115.786 26.8551 116 27.1577 116.29 27.3878C116.58 27.6179 116.949 27.733 117.398 27.733ZM125.035 24.8182V25.7557H121.575V24.8182H125.035ZM122.427 21.9545V28.5H121.422V21.9545H122.427ZM127.047 28.6364C126.456 28.6364 125.937 28.4957 125.491 28.2145C125.048 27.9332 124.702 27.5398 124.452 27.0341C124.204 26.5284 124.081 25.9375 124.081 25.2614C124.081 24.5795 124.204 23.9844 124.452 23.4759C124.702 22.9673 125.048 22.5724 125.491 22.2912C125.937 22.0099 126.456 21.8693 127.047 21.8693C127.638 21.8693 128.155 22.0099 128.598 22.2912C129.044 22.5724 129.39 22.9673 129.638 23.4759C129.888 23.9844 130.013 24.5795 130.013 25.2614C130.013 25.9375 129.888 26.5284 129.638 27.0341C129.39 27.5398 129.044 27.9332 128.598 28.2145C128.155 28.4957 127.638 28.6364 127.047 28.6364ZM127.047 27.733C127.496 27.733 127.865 27.6179 128.155 27.3878C128.444 27.1577 128.659 26.8551 128.798 26.4801C128.937 26.1051 129.007 25.6989 129.007 25.2614C129.007 24.8239 128.937 24.4162 128.798 24.0384C128.659 23.6605 128.444 23.3551 128.155 23.1222C127.865 22.8892 127.496 22.7727 127.047 22.7727C126.598 22.7727 126.229 22.8892 125.939 23.1222C125.649 23.3551 125.434 23.6605 125.295 24.0384C125.156 24.4162 125.086 24.8239 125.086 25.2614C125.086 25.6989 125.156 26.1051 125.295 26.4801C125.434 26.8551 125.649 27.1577 125.939 27.3878C126.229 27.6179 126.598 27.733 127.047 27.733ZM135.024 28.5V21.9545H140.172V28.5H139.166V22.892H136.03V28.5H135.024ZM144.667 28.6364C144.077 28.6364 143.558 28.4957 143.112 28.2145C142.669 27.9332 142.322 27.5398 142.072 27.0341C141.825 26.5284 141.702 25.9375 141.702 25.2614C141.702 24.5795 141.825 23.9844 142.072 23.4759C142.322 22.9673 142.669 22.5724 143.112 22.2912C143.558 22.0099 144.077 21.8693 144.667 21.8693C145.258 21.8693 145.775 22.0099 146.219 22.2912C146.665 22.5724 147.011 22.9673 147.258 23.4759C147.508 23.9844 147.633 24.5795 147.633 25.2614C147.633 25.9375 147.508 26.5284 147.258 27.0341C147.011 27.5398 146.665 27.9332 146.219 28.2145C145.775 28.4957 145.258 28.6364 144.667 28.6364ZM144.667 27.733C145.116 27.733 145.486 27.6179 145.775 27.3878C146.065 27.1577 146.28 26.8551 146.419 26.4801C146.558 26.1051 146.628 25.6989 146.628 25.2614C146.628 24.8239 146.558 24.4162 146.419 24.0384C146.28 23.6605 146.065 23.3551 145.775 23.1222C145.486 22.8892 145.116 22.7727 144.667 22.7727C144.219 22.7727 143.849 22.8892 143.559 23.1222C143.27 23.3551 143.055 23.6605 142.916 24.0384C142.777 24.4162 142.707 24.8239 142.707 25.2614C142.707 25.6989 142.777 26.1051 142.916 26.4801C143.055 26.8551 143.27 27.1577 143.559 27.3878C143.849 27.6179 144.219 27.733 144.667 27.733ZM154.214 21.9545V28.5H153.208V21.9545H154.214ZM153.822 25.0739V26.0114C153.595 26.0966 153.369 26.1719 153.144 26.2372C152.92 26.2997 152.684 26.3494 152.437 26.3864C152.19 26.4205 151.919 26.4375 151.623 26.4375C150.882 26.4375 150.286 26.2372 149.838 25.8366C149.392 25.4361 149.169 24.8352 149.169 24.0341V21.9375H150.174V24.0341C150.174 24.3693 150.238 24.6449 150.366 24.8608C150.494 25.0767 150.667 25.2372 150.886 25.3423C151.105 25.4474 151.35 25.5 151.623 25.5C152.049 25.5 152.434 25.4616 152.778 25.3849C153.124 25.3054 153.472 25.2017 153.822 25.0739ZM155.169 22.892V21.9545H160.487V22.892H158.339V28.5H157.333V22.892H155.169ZM162.601 30.9545C162.431 30.9545 162.279 30.9403 162.145 30.9119C162.012 30.8864 161.92 30.8608 161.868 30.8352L162.124 29.9489C162.368 30.0114 162.584 30.0341 162.772 30.017C162.959 30 163.126 29.9162 163.27 29.7656C163.418 29.6179 163.553 29.3778 163.675 29.0455L163.863 28.5341L161.442 21.9545H162.533L164.34 27.1705H164.408L166.215 21.9545H167.306L164.528 29.4545C164.403 29.7926 164.248 30.0724 164.063 30.294C163.878 30.5185 163.664 30.6847 163.42 30.7926C163.178 30.9006 162.905 30.9545 162.601 30.9545Z" fill="white" fill-opacity="0.6"/>
<rect x="434" y="6" width="94" height="36" rx="18" fill="#F0BA4E"/>
<path d="M461.03 24.3636C461.03 25.1567 460.88 25.8314 460.579 26.3878C460.281 26.9441 459.874 27.3691 459.358 27.6626C458.844 27.9538 458.266 28.0994 457.625 28.0994C456.978 28.0994 456.398 27.9527 455.885 27.6591C455.371 27.3655 454.965 26.9406 454.667 26.3842C454.368 25.8279 454.219 25.1544 454.219 24.3636C454.219 23.5705 454.368 22.8958 454.667 22.3395C454.965 21.7831 455.371 21.3594 455.885 21.0682C456.398 20.7746 456.978 20.6278 457.625 20.6278C458.266 20.6278 458.844 20.7746 459.358 21.0682C459.874 21.3594 460.281 21.7831 460.579 22.3395C460.88 22.8958 461.03 23.5705 461.03 24.3636ZM459.471 24.3636C459.471 23.8499 459.394 23.4167 459.24 23.0639C459.089 22.7112 458.875 22.4437 458.598 22.2614C458.321 22.0791 457.996 21.9879 457.625 21.9879C457.253 21.9879 456.929 22.0791 456.652 22.2614C456.375 22.4437 456.159 22.7112 456.005 23.0639C455.854 23.4167 455.778 23.8499 455.778 24.3636C455.778 24.8774 455.854 25.3106 456.005 25.6634C456.159 26.0161 456.375 26.2836 456.652 26.4659C456.929 26.6482 457.253 26.7393 457.625 26.7393C457.996 26.7393 458.321 26.6482 458.598 26.4659C458.875 26.2836 459.089 26.0161 459.24 25.6634C459.394 25.3106 459.471 24.8774 459.471 24.3636ZM461.857 23.7351V22.5455H466.8V23.7351H465.042V28H463.6V23.7351H461.857ZM467.717 28V22.5455H472.486V28H471.041V23.7351H469.145V28H467.717ZM473.694 30.0455V22.5455H475.185V23.4616H475.252C475.319 23.3149 475.415 23.1657 475.54 23.0142C475.668 22.8603 475.834 22.7325 476.037 22.6307C476.243 22.5265 476.499 22.4744 476.804 22.4744C477.202 22.4744 477.569 22.5786 477.905 22.7869C478.241 22.9929 478.51 23.3042 478.711 23.7209C478.913 24.1352 479.013 24.6548 479.013 25.2798C479.013 25.8883 478.915 26.402 478.718 26.821C478.524 27.2377 478.259 27.5537 477.923 27.7692C477.589 27.9822 477.215 28.0888 476.801 28.0888C476.507 28.0888 476.257 28.0402 476.051 27.9432C475.848 27.8461 475.681 27.7242 475.551 27.5774C475.421 27.4283 475.321 27.2779 475.252 27.1264H475.206V30.0455H473.694ZM475.174 25.2727C475.174 25.5971 475.219 25.88 475.309 26.1214C475.399 26.3629 475.529 26.5511 475.7 26.6861C475.87 26.8187 476.078 26.8849 476.321 26.8849C476.568 26.8849 476.776 26.8175 476.946 26.6825C477.117 26.5452 477.246 26.3558 477.333 26.1143C477.423 25.8705 477.468 25.59 477.468 25.2727C477.468 24.9579 477.425 24.6809 477.337 24.4418C477.249 24.2027 477.12 24.0156 476.95 23.8807C476.779 23.7457 476.57 23.6783 476.321 23.6783C476.075 23.6783 475.867 23.7434 475.696 23.8736C475.528 24.0038 475.399 24.1884 475.309 24.4276C475.219 24.6667 475.174 24.9484 475.174 25.2727ZM481.577 28.103C481.229 28.103 480.919 28.0426 480.647 27.9219C480.374 27.7988 480.159 27.6177 480 27.3786C479.844 27.1371 479.766 26.8364 479.766 26.4766C479.766 26.1735 479.822 25.919 479.933 25.7131C480.044 25.5071 480.196 25.3414 480.387 25.2159C480.579 25.0904 480.797 24.9957 481.041 24.9318C481.287 24.8679 481.545 24.8229 481.815 24.7969C482.132 24.7637 482.388 24.733 482.582 24.7045C482.776 24.6738 482.917 24.6288 483.005 24.5696C483.092 24.5104 483.136 24.4228 483.136 24.3068V24.2855C483.136 24.0606 483.065 23.8866 482.923 23.7635C482.783 23.6404 482.584 23.5788 482.326 23.5788C482.054 23.5788 481.837 23.6392 481.676 23.7599C481.516 23.8783 481.409 24.0275 481.357 24.2074L479.958 24.0938C480.029 23.7623 480.168 23.4759 480.377 23.2344C480.585 22.9905 480.854 22.8035 481.183 22.6733C481.514 22.5407 481.898 22.4744 482.333 22.4744C482.636 22.4744 482.926 22.5099 483.203 22.581C483.483 22.652 483.73 22.7621 483.946 22.9112C484.163 23.0604 484.335 23.2521 484.461 23.4865C484.586 23.7185 484.649 23.9967 484.649 24.321V28H483.214V27.2436H483.172C483.084 27.4141 482.967 27.5644 482.82 27.6946C482.673 27.8224 482.497 27.9231 482.291 27.9964C482.085 28.0675 481.847 28.103 481.577 28.103ZM482.01 27.0589C482.233 27.0589 482.429 27.0152 482.6 26.9276C482.77 26.8376 482.904 26.7169 483.001 26.5653C483.098 26.4138 483.147 26.2422 483.147 26.0504V25.4716C483.099 25.5024 483.034 25.5308 482.951 25.5568C482.871 25.5805 482.78 25.603 482.678 25.6243C482.576 25.6432 482.474 25.661 482.373 25.6776C482.271 25.6918 482.178 25.7048 482.096 25.7166C481.918 25.7427 481.763 25.7841 481.63 25.8409C481.498 25.8977 481.395 25.9747 481.321 26.0717C481.248 26.1664 481.211 26.2848 481.211 26.4268C481.211 26.6328 481.286 26.7902 481.435 26.8991C481.587 27.0057 481.778 27.0589 482.01 27.0589ZM485.822 28V22.5455H488.148C488.821 22.5455 489.352 22.6733 489.743 22.929C490.134 23.1847 490.329 23.5481 490.329 24.0192C490.329 24.3151 490.219 24.5613 489.999 24.7578C489.778 24.9543 489.473 25.0869 489.082 25.1555C489.409 25.1792 489.687 25.2538 489.917 25.3793C490.149 25.5024 490.325 25.6622 490.446 25.8587C490.569 26.0552 490.631 26.273 490.631 26.5121C490.631 26.8222 490.548 27.0885 490.382 27.3111C490.219 27.5336 489.978 27.7041 489.661 27.8224C489.346 27.9408 488.962 28 488.507 28H485.822ZM487.232 26.8672H488.507C488.718 26.8672 488.882 26.8175 489.001 26.718C489.121 26.6162 489.182 26.4777 489.182 26.3026C489.182 26.1084 489.121 25.9557 489.001 25.8445C488.882 25.7332 488.718 25.6776 488.507 25.6776H487.232V26.8672ZM487.232 24.7898H488.18C488.332 24.7898 488.461 24.7685 488.567 24.7259C488.676 24.6809 488.759 24.617 488.816 24.5341C488.875 24.4512 488.905 24.353 488.905 24.2393C488.905 24.0713 488.837 23.9399 488.702 23.8452C488.567 23.7505 488.383 23.7031 488.148 23.7031H487.232V24.7898ZM493.029 26.0043L494.993 22.5455H496.485V28H495.043V24.5305L493.086 28H491.584V22.5455H493.029V26.0043ZM497.15 23.7351V22.5455H502.093V23.7351H500.335V28H498.893V23.7351H497.15ZM503.958 24.2216H505.588C506.31 24.2216 506.874 24.3944 507.278 24.7401C507.683 25.0833 507.886 25.5426 507.886 26.1179C507.886 26.492 507.795 26.821 507.612 27.1051C507.43 27.3868 507.167 27.607 506.824 27.7656C506.481 27.9219 506.069 28 505.588 28H503.01V22.5455H504.455V26.8104H505.588C505.841 26.8104 506.05 26.7464 506.213 26.6186C506.376 26.4908 506.459 26.3274 506.462 26.1286C506.459 25.9179 506.376 25.7462 506.213 25.6136C506.05 25.4787 505.841 25.4112 505.588 25.4112H503.958V24.2216Z" fill="white"/>
</svg>
