<svg width="123" height="13" viewBox="0 0 123 13" fill="none" xmlns="http://www.w3.org/2000/svg">
<path d="M2.74219 5.40909C2.74219 4.86553 2.87476 4.37003 3.13991 3.92259C3.40507 3.47514 3.76136 3.11884 4.20881 2.85369C4.65625 2.58854 5.15175 2.45597 5.69531 2.45597C6.16596 2.45597 6.60014 2.55705 6.99787 2.75923C7.39891 2.96141 7.73035 3.23816 7.99219 3.58949C8.25402 3.9375 8.41643 4.33191 8.4794 4.77273H7.27628C7.20999 4.43134 7.02604 4.15294 6.72443 3.9375C6.42282 3.71875 6.07978 3.60938 5.69531 3.60938C5.36387 3.60938 5.06226 3.69058 4.79048 3.85298C4.5187 4.01539 4.30161 4.23248 4.1392 4.50426C3.9768 4.77604 3.8956 5.07765 3.8956 5.40909C3.8956 5.74053 3.9768 6.04214 4.1392 6.31392C4.30161 6.5857 4.5187 6.80279 4.79048 6.9652C5.06226 7.1276 5.36387 7.20881 5.69531 7.20881C6.07978 7.20881 6.40459 7.10109 6.66974 6.88565C6.93821 6.6669 7.10724 6.38684 7.17685 6.04545H8.37997C8.317 6.48627 8.16288 6.88234 7.91761 7.23366C7.67235 7.58168 7.35748 7.85677 6.97301 8.05895C6.59186 8.26113 6.16596 8.36222 5.69531 8.36222C5.15175 8.36222 4.65625 8.22964 4.20881 7.96449C3.76136 7.69934 3.40507 7.34304 3.13991 6.8956C2.87476 6.44815 2.74219 5.95265 2.74219 5.40909ZM5.6456 10.6591C4.92306 10.6591 4.24361 10.5232 3.60724 10.2514C2.9742 9.97964 2.41572 9.60346 1.93182 9.12287C1.45123 8.63897 1.07339 8.08049 0.798295 7.44744C0.526515 6.81439 0.392282 6.13494 0.395597 5.40909C0.398911 4.68324 0.536458 4.00379 0.808239 3.37074C1.08333 2.73769 1.46117 2.18087 1.94176 1.70028C2.42235 1.21638 2.97917 0.838541 3.61222 0.566761C4.24527 0.294981 4.92306 0.159091 5.6456 0.159091C6.37145 0.159091 7.0509 0.294981 7.68395 0.566761C8.32031 0.838541 8.87713 1.21638 9.3544 1.70028C9.83499 2.18087 10.2112 2.73769 10.483 3.37074C10.7547 4.00379 10.8923 4.68324 10.8956 5.40909C10.8989 6.13494 10.7647 6.81439 10.4929 7.44744C10.2211 8.08049 9.84493 8.63897 9.36435 9.12287C8.88376 9.60346 8.32528 9.97964 7.68892 10.2514C7.05256 10.5232 6.37145 10.6591 5.6456 10.6591ZM5.6456 9.50568C6.21236 9.50568 6.74432 9.39962 7.24148 9.1875C7.73864 8.97538 8.17448 8.68205 8.54901 8.30753C8.92353 7.933 9.21686 7.49882 9.42898 7.00497C9.6411 6.50781 9.7455 5.97751 9.74219 5.41406C9.73887 4.8473 9.63116 4.31534 9.41903 3.81818C9.20691 3.32102 8.91359 2.88518 8.53906 2.51065C8.16454 2.13613 7.73035 1.8428 7.23651 1.63068C6.74266 1.41856 6.21236 1.3125 5.6456 1.3125C5.08215 1.3125 4.5535 1.41856 4.05966 1.63068C3.56581 1.8428 3.13163 2.13778 2.7571 2.51562C2.38258 2.89015 2.08759 3.32599 1.87216 3.82315C1.66004 4.317 1.55232 4.8473 1.54901 5.41406C1.54569 5.97419 1.65009 6.50284 1.86222 7C2.07434 7.49384 2.36766 7.92803 2.74219 8.30256C3.12003 8.67708 3.55587 8.97206 4.04972 9.1875C4.54688 9.39962 5.07884 9.50568 5.6456 9.50568ZM17.0442 10.5V9.60511L20.405 5.92614C20.7994 5.49526 21.1242 5.12074 21.3794 4.80256C21.6346 4.48106 21.8236 4.17945 21.9462 3.89773C22.0721 3.61269 22.1351 3.31439 22.1351 3.00284C22.1351 2.64489 22.0489 2.33499 21.8766 2.07315C21.7076 1.81132 21.4756 1.60914 21.1806 1.46662C20.8856 1.3241 20.5542 1.25284 20.1863 1.25284C19.7952 1.25284 19.4538 1.33404 19.1621 1.49645C18.8738 1.65554 18.65 1.87926 18.4909 2.16761C18.3352 2.45597 18.2573 2.79403 18.2573 3.18182H17.084C17.084 2.58523 17.2215 2.06155 17.4966 1.6108C17.7717 1.16004 18.1462 0.808711 18.6202 0.556818C19.0975 0.304924 19.6328 0.178977 20.226 0.178977C20.8226 0.178977 21.3513 0.304924 21.812 0.556818C22.2727 0.808711 22.6339 1.14844 22.8958 1.57599C23.1576 2.00355 23.2885 2.47917 23.2885 3.00284C23.2885 3.37737 23.2206 3.74361 23.0847 4.10156C22.9521 4.4562 22.7201 4.85227 22.3887 5.28977C22.0605 5.72396 21.6048 6.25426 21.0215 6.88068L18.7346 9.3267V9.40625H23.4675V10.5H17.0442ZM28.8418 10.6392C28.0927 10.6392 27.4547 10.4354 26.9277 10.0277C26.4007 9.61671 25.998 9.02178 25.7196 8.2429C25.4412 7.4607 25.302 6.5161 25.302 5.40909C25.302 4.30871 25.4412 3.36908 25.7196 2.5902C26.0014 1.808 26.4057 1.21141 26.9327 0.800426C27.463 0.386126 28.0994 0.178977 28.8418 0.178977C29.5842 0.178977 30.2189 0.386126 30.7459 0.800426C31.2762 1.21141 31.6806 1.808 31.959 2.5902C32.2407 3.36908 32.3816 4.30871 32.3816 5.40909C32.3816 6.5161 32.2424 7.4607 31.964 8.2429C31.6855 9.02178 31.2828 9.61671 30.7559 10.0277C30.2289 10.4354 29.5908 10.6392 28.8418 10.6392ZM28.8418 9.54545C29.5842 9.54545 30.1609 9.1875 30.5719 8.47159C30.9829 7.75568 31.1884 6.73485 31.1884 5.40909C31.1884 4.52746 31.0939 3.77675 30.905 3.15696C30.7194 2.53717 30.4509 2.06487 30.0996 1.74006C29.7516 1.41525 29.3323 1.25284 28.8418 1.25284C28.106 1.25284 27.531 1.61577 27.1167 2.34162C26.7024 3.06416 26.4952 4.08665 26.4952 5.40909C26.4952 6.29072 26.588 7.03977 26.7736 7.65625C26.9592 8.27273 27.226 8.74171 27.574 9.06321C27.9254 9.38471 28.348 9.54545 28.8418 9.54545ZM34.2708 10.5V9.60511L37.6316 5.92614C38.026 5.49526 38.3508 5.12074 38.606 4.80256C38.8612 4.48106 39.0501 4.17945 39.1728 3.89773C39.2987 3.61269 39.3617 3.31439 39.3617 3.00284C39.3617 2.64489 39.2755 2.33499 39.1032 2.07315C38.9341 1.81132 38.7021 1.60914 38.4071 1.46662C38.1122 1.3241 37.7807 1.25284 37.4128 1.25284C37.0217 1.25284 36.6803 1.33404 36.3887 1.49645C36.1003 1.65554 35.8766 1.87926 35.7175 2.16761C35.5617 2.45597 35.4838 2.79403 35.4838 3.18182H34.3105C34.3105 2.58523 34.4481 2.06155 34.7232 1.6108C34.9983 1.16004 35.3728 0.808711 35.8468 0.556818C36.324 0.304924 36.8593 0.178977 37.4526 0.178977C38.0492 0.178977 38.5778 0.304924 39.0385 0.556818C39.4992 0.808711 39.8605 1.14844 40.1223 1.57599C40.3842 2.00355 40.5151 2.47917 40.5151 3.00284C40.5151 3.37737 40.4471 3.74361 40.3113 4.10156C40.1787 4.4562 39.9467 4.85227 39.6152 5.28977C39.2871 5.72396 38.8314 6.25426 38.248 6.88068L35.9611 9.3267V9.40625H40.6941V10.5H34.2708ZM46.3269 0.318182V10.5H45.0939V1.6108H45.0343L42.5485 3.26136V2.00852L45.0939 0.318182H46.3269ZM53.65 4.86222V5.95597H49.1955V4.86222H53.65ZM55.2161 10.5V9.60511L58.5769 5.92614C58.9713 5.49526 59.2961 5.12074 59.5513 4.80256C59.8065 4.48106 59.9954 4.17945 60.1181 3.89773C60.244 3.61269 60.307 3.31439 60.307 3.00284C60.307 2.64489 60.2208 2.33499 60.0485 2.07315C59.8794 1.81132 59.6474 1.60914 59.3525 1.46662C59.0575 1.3241 58.726 1.25284 58.3581 1.25284C57.967 1.25284 57.6257 1.33404 57.334 1.49645C57.0456 1.65554 56.8219 1.87926 56.6628 2.16761C56.507 2.45597 56.4292 2.79403 56.4292 3.18182H55.2559C55.2559 2.58523 55.3934 2.06155 55.6685 1.6108C55.9436 1.16004 56.3181 0.808711 56.7921 0.556818C57.2694 0.304924 57.8046 0.178977 58.3979 0.178977C58.9945 0.178977 59.5231 0.304924 59.9838 0.556818C60.4445 0.808711 60.8058 1.14844 61.0676 1.57599C61.3295 2.00355 61.4604 2.47917 61.4604 3.00284C61.4604 3.37737 61.3925 3.74361 61.2566 4.10156C61.124 4.4562 60.892 4.85227 60.5605 5.28977C60.2324 5.72396 59.7767 6.25426 59.1934 6.88068L56.9064 9.3267V9.40625H61.6394V10.5H55.2161ZM67.0137 10.6392C66.2646 10.6392 65.6266 10.4354 65.0996 10.0277C64.5726 9.61671 64.1699 9.02178 63.8915 8.2429C63.6131 7.4607 63.4739 6.5161 63.4739 5.40909C63.4739 4.30871 63.6131 3.36908 63.8915 2.5902C64.1732 1.808 64.5776 1.21141 65.1046 0.800426C65.6349 0.386126 66.2712 0.178977 67.0137 0.178977C67.7561 0.178977 68.3908 0.386126 68.9178 0.800426C69.4481 1.21141 69.8525 1.808 70.1309 2.5902C70.4126 3.36908 70.5534 4.30871 70.5534 5.40909C70.5534 6.5161 70.4142 7.4607 70.1358 8.2429C69.8574 9.02178 69.4547 9.61671 68.9277 10.0277C68.4007 10.4354 67.7627 10.6392 67.0137 10.6392ZM67.0137 9.54545C67.7561 9.54545 68.3328 9.1875 68.7438 8.47159C69.1548 7.75568 69.3603 6.73485 69.3603 5.40909C69.3603 4.52746 69.2658 3.77675 69.0769 3.15696C68.8913 2.53717 68.6228 2.06487 68.2715 1.74006C67.9235 1.41525 67.5042 1.25284 67.0137 1.25284C66.2779 1.25284 65.7028 1.61577 65.2885 2.34162C64.8742 3.06416 64.6671 4.08665 64.6671 5.40909C64.6671 6.29072 64.7599 7.03977 64.9455 7.65625C65.1311 8.27273 65.3979 8.74171 65.7459 9.06321C66.0972 9.38471 66.5198 9.54545 67.0137 9.54545ZM72.4426 10.5V9.60511L75.8034 5.92614C76.1979 5.49526 76.5227 5.12074 76.7779 4.80256C77.0331 4.48106 77.222 4.17945 77.3446 3.89773C77.4706 3.61269 77.5336 3.31439 77.5336 3.00284C77.5336 2.64489 77.4474 2.33499 77.275 2.07315C77.106 1.81132 76.874 1.60914 76.579 1.46662C76.284 1.3241 75.9526 1.25284 75.5847 1.25284C75.1936 1.25284 74.8522 1.33404 74.5605 1.49645C74.2722 1.65554 74.0485 1.87926 73.8894 2.16761C73.7336 2.45597 73.6557 2.79403 73.6557 3.18182H72.4824C72.4824 2.58523 72.62 2.06155 72.8951 1.6108C73.1702 1.16004 73.5447 0.808711 74.0186 0.556818C74.4959 0.304924 75.0312 0.178977 75.6245 0.178977C76.2211 0.178977 76.7497 0.304924 77.2104 0.556818C77.6711 0.808711 78.0324 1.14844 78.2942 1.57599C78.556 2.00355 78.687 2.47917 78.687 3.00284C78.687 3.37737 78.619 3.74361 78.4831 4.10156C78.3506 4.4562 78.1185 4.85227 77.7871 5.28977C77.459 5.72396 77.0033 6.25426 76.4199 6.88068L74.133 9.3267V9.40625H78.8659V10.5H72.4426ZM80.9192 10.5V9.60511L84.28 5.92614C84.6744 5.49526 84.9992 5.12074 85.2544 4.80256C85.5096 4.48106 85.6986 4.17945 85.8212 3.89773C85.9471 3.61269 86.0101 3.31439 86.0101 3.00284C86.0101 2.64489 85.9239 2.33499 85.7516 2.07315C85.5826 1.81132 85.3506 1.60914 85.0556 1.46662C84.7606 1.3241 84.4292 1.25284 84.0613 1.25284C83.6702 1.25284 83.3288 1.33404 83.0371 1.49645C82.7488 1.65554 82.525 1.87926 82.3659 2.16761C82.2102 2.45597 82.1323 2.79403 82.1323 3.18182H80.959C80.959 2.58523 81.0965 2.06155 81.3716 1.6108C81.6467 1.16004 82.0212 0.808711 82.4952 0.556818C82.9725 0.304924 83.5078 0.178977 84.101 0.178977C84.6976 0.178977 85.2263 0.304924 85.687 0.556818C86.1477 0.808711 86.5089 1.14844 86.7708 1.57599C87.0326 2.00355 87.1635 2.47917 87.1635 3.00284C87.1635 3.37737 87.0956 3.74361 86.9597 4.10156C86.8271 4.4562 86.5951 4.85227 86.2637 5.28977C85.9355 5.72396 85.4798 6.25426 84.8965 6.88068L82.6096 9.3267V9.40625H87.3425V10.5H80.9192ZM91.1657 9.10795L91.0861 9.64489C91.0298 10.0227 90.9436 10.4271 90.8276 10.858C90.7149 11.2888 90.5972 11.6948 90.4746 12.076C90.352 12.4571 90.2509 12.7604 90.1713 12.9858H89.2765C89.3195 12.7737 89.3759 12.4936 89.4455 12.1456C89.5151 11.7976 89.5847 11.4081 89.6543 10.9773C89.7272 10.5497 89.7869 10.1122 89.8333 9.66477L89.8929 9.10795H91.1657ZM97.4361 10.5V0.318182H103.581V1.41193H98.669V4.85227H103.263V5.94602H98.669V9.40625H103.661V10.5H97.4361ZM108.945 10.5H105.803V0.318182H109.085C110.072 0.318182 110.917 0.522017 111.62 0.929688C112.323 1.33404 112.861 1.91572 113.236 2.67472C113.61 3.4304 113.798 4.33523 113.798 5.3892C113.798 6.44981 113.609 7.36293 113.231 8.12855C112.853 8.89086 112.303 9.47751 111.58 9.88849C110.858 10.2962 109.979 10.5 108.945 10.5ZM107.036 9.40625H108.866C109.708 9.40625 110.405 9.24384 110.959 8.91903C111.512 8.59422 111.925 8.13187 112.197 7.53196C112.469 6.93205 112.604 6.2178 112.604 5.3892C112.604 4.56723 112.47 3.85961 112.202 3.26633C111.933 2.66974 111.532 2.21236 110.999 1.89418C110.465 1.57268 109.8 1.41193 109.005 1.41193H107.036V9.40625ZM115.866 10.5V0.318182H122.011V1.41193H117.099V4.85227H121.692V5.94602H117.099V9.40625H122.09V10.5H115.866Z" fill="white" fill-opacity="0.6"/>
</svg>
