<svg width="216" height="18" viewBox="0 0 216 18" fill="none" xmlns="http://www.w3.org/2000/svg">
<path d="M10.9723 0.909091V14H8.62003V2.87784H2.89276V14H0.540483V0.909091H10.9723ZM17.9892 14.1918C17.0304 14.1918 16.1994 13.9808 15.4963 13.5589C14.7931 13.1371 14.2477 12.5469 13.8599 11.7884C13.4764 11.0298 13.2846 10.1435 13.2846 9.12926C13.2846 8.11506 13.4764 7.22656 13.8599 6.46378C14.2477 5.70099 14.7931 5.10866 15.4963 4.68679C16.1994 4.26491 17.0304 4.05398 17.9892 4.05398C18.948 4.05398 19.7789 4.26491 20.4821 4.68679C21.1852 5.10866 21.7285 5.70099 22.112 6.46378C22.4998 7.22656 22.6937 8.11506 22.6937 9.12926C22.6937 10.1435 22.4998 11.0298 22.112 11.7884C21.7285 12.5469 21.1852 13.1371 20.4821 13.5589C19.7789 13.9808 18.948 14.1918 17.9892 14.1918ZM18.002 12.3381C18.5218 12.3381 18.9565 12.1953 19.3059 11.9098C19.6554 11.62 19.9153 11.2322 20.0858 10.7464C20.2605 10.2607 20.3478 9.71946 20.3478 9.12287C20.3478 8.52202 20.2605 7.97869 20.0858 7.4929C19.9153 7.00284 19.6554 6.61293 19.3059 6.32315C18.9565 6.03338 18.5218 5.88849 18.002 5.88849C17.4693 5.88849 17.0261 6.03338 16.6724 6.32315C16.323 6.61293 16.0609 7.00284 15.8862 7.4929C15.7157 7.97869 15.6305 8.52202 15.6305 9.12287C15.6305 9.71946 15.7157 10.2607 15.8862 10.7464C16.0609 11.2322 16.323 11.62 16.6724 11.9098C17.0261 12.1953 17.4693 12.3381 18.002 12.3381ZM28.9403 14.1918C27.9602 14.1918 27.1186 13.9766 26.4155 13.5462C25.7166 13.1158 25.1776 12.5213 24.7983 11.7628C24.4233 11 24.2358 10.1222 24.2358 9.12926C24.2358 8.1321 24.4276 7.25213 24.8111 6.48935C25.1946 5.7223 25.7358 5.12571 26.4347 4.69957C27.1378 4.26918 27.9688 4.05398 28.9276 4.05398C29.7244 4.05398 30.4297 4.20099 31.0433 4.49503C31.6612 4.7848 32.1534 5.19602 32.5199 5.72869C32.8864 6.2571 33.0952 6.875 33.1463 7.58239H30.9347C30.8452 7.10937 30.6321 6.7152 30.2955 6.39986C29.9631 6.08026 29.5178 5.92045 28.9595 5.92045C28.4865 5.92045 28.071 6.0483 27.7131 6.30398C27.3551 6.5554 27.076 6.91761 26.8757 7.39062C26.6797 7.86364 26.5817 8.4304 26.5817 9.09091C26.5817 9.75994 26.6797 10.3352 26.8757 10.8168C27.0717 11.294 27.3466 11.6626 27.7003 11.9226C28.0582 12.1783 28.478 12.3061 28.9595 12.3061C29.3004 12.3061 29.6051 12.2422 29.8736 12.1143C30.1463 11.9822 30.3743 11.7926 30.5575 11.5455C30.7408 11.2983 30.8665 10.9979 30.9347 10.6442H33.1463C33.0909 11.3388 32.8864 11.9545 32.5327 12.4915C32.179 13.0241 31.6974 13.4418 31.0881 13.7443C30.4787 14.0426 29.7628 14.1918 28.9403 14.1918ZM40.6969 11.3089L43.6117 4.18182H45.4782L41.5087 14H39.8915L36.0115 4.18182H37.8588L40.6969 11.3089ZM37.2772 4.18182V14H35.0463V4.18182H37.2772ZM44.2125 14V4.18182H46.4242V14H44.2125ZM53.04 14.1918C52.0811 14.1918 51.2502 13.9808 50.5471 13.5589C49.8439 13.1371 49.2985 12.5469 48.9107 11.7884C48.5272 11.0298 48.3354 10.1435 48.3354 9.12926C48.3354 8.11506 48.5272 7.22656 48.9107 6.46378C49.2985 5.70099 49.8439 5.10866 50.5471 4.68679C51.2502 4.26491 52.0811 4.05398 53.04 4.05398C53.9988 4.05398 54.8297 4.26491 55.5328 4.68679C56.236 5.10866 56.7793 5.70099 57.1628 6.46378C57.5506 7.22656 57.7445 8.11506 57.7445 9.12926C57.7445 10.1435 57.5506 11.0298 57.1628 11.7884C56.7793 12.5469 56.236 13.1371 55.5328 13.5589C54.8297 13.9808 53.9988 14.1918 53.04 14.1918ZM53.0527 12.3381C53.5726 12.3381 54.0073 12.1953 54.3567 11.9098C54.7061 11.62 54.9661 11.2322 55.1365 10.7464C55.3113 10.2607 55.3986 9.71946 55.3986 9.12287C55.3986 8.52202 55.3113 7.97869 55.1365 7.4929C54.9661 7.00284 54.7061 6.61293 54.3567 6.32315C54.0073 6.03338 53.5726 5.88849 53.0527 5.88849C52.5201 5.88849 52.0769 6.03338 51.7232 6.32315C51.3738 6.61293 51.1117 7.00284 50.937 7.4929C50.7665 7.97869 50.6813 8.52202 50.6813 9.12287C50.6813 9.71946 50.7665 10.2607 50.937 10.7464C51.1117 11.2322 51.3738 11.62 51.7232 11.9098C52.0769 12.1953 52.5201 12.3381 53.0527 12.3381ZM58.6266 6.08026V4.18182H67.2175V6.08026H64.0407V14H61.8034V6.08026H58.6266ZM69.06 17.6818V4.18182H71.3356V5.8054H71.4698C71.5891 5.56676 71.7575 5.31321 71.9748 5.04474C72.1921 4.77202 72.4862 4.53977 72.8569 4.34801C73.2276 4.15199 73.7006 4.05398 74.2759 4.05398C75.0344 4.05398 75.7184 4.24787 76.3278 4.63565C76.9414 5.01918 77.4272 5.58807 77.7852 6.34233C78.1474 7.09233 78.3285 8.01278 78.3285 9.10369C78.3285 10.1818 78.1516 11.098 77.7979 11.8523C77.4442 12.6065 76.9627 13.1818 76.3533 13.5781C75.744 13.9744 75.0536 14.1726 74.2823 14.1726C73.7198 14.1726 73.2532 14.0788 72.8825 13.8913C72.5117 13.7038 72.2134 13.478 71.9876 13.2138C71.766 12.9453 71.5934 12.6918 71.4698 12.4531H71.3739V17.6818H69.06ZM71.3292 9.09091C71.3292 9.72585 71.4187 10.282 71.5977 10.7592C71.7809 11.2365 72.043 11.6094 72.3839 11.8778C72.729 12.142 73.1467 12.2741 73.6367 12.2741C74.1481 12.2741 74.5763 12.1378 74.9215 11.8651C75.2667 11.5881 75.5266 11.2109 75.7013 10.7337C75.8803 10.2521 75.9698 9.70455 75.9698 9.09091C75.9698 8.48153 75.8825 7.94034 75.7077 7.46733C75.533 6.99432 75.2731 6.62358 74.9279 6.35511C74.5827 6.08665 74.1523 5.95241 73.6367 5.95241C73.1424 5.95241 72.7227 6.08239 72.3775 6.34233C72.0323 6.60227 71.7702 6.96662 71.5913 7.43537C71.4165 7.90412 71.3292 8.45597 71.3292 9.09091ZM84.6566 14.1918C83.6722 14.1918 82.8221 13.9872 82.1062 13.5781C81.3945 13.1648 80.8469 12.581 80.4634 11.8267C80.0799 11.0682 79.8881 10.1754 79.8881 9.14844C79.8881 8.13849 80.0799 7.25213 80.4634 6.48935C80.8512 5.7223 81.3924 5.12571 82.087 4.69957C82.7816 4.26918 83.5977 4.05398 84.5352 4.05398C85.1403 4.05398 85.7113 4.15199 86.2482 4.34801C86.7894 4.53977 87.2667 4.83807 87.68 5.2429C88.0977 5.64773 88.4258 6.16335 88.6644 6.78977C88.9031 7.41193 89.0224 8.15341 89.0224 9.0142V9.72372H80.9748V8.16406H86.8043C86.8001 7.72088 86.7042 7.3267 86.5167 6.98153C86.3292 6.6321 86.0671 6.35724 85.7305 6.15696C85.3981 5.95668 85.0103 5.85653 84.5671 5.85653C84.0941 5.85653 83.6786 5.97159 83.3207 6.2017C82.9627 6.42756 82.6836 6.72585 82.4833 7.09659C82.2873 7.46307 82.1871 7.86577 82.1829 8.30469V9.66619C82.1829 10.2372 82.2873 10.7273 82.4961 11.1364C82.7049 11.5412 82.9968 11.8523 83.3718 12.0696C83.7468 12.2827 84.1857 12.3892 84.6886 12.3892C85.0252 12.3892 85.3299 12.3423 85.6026 12.2486C85.8754 12.1506 86.1119 12.0078 86.3121 11.8203C86.5124 11.6328 86.6637 11.4006 86.766 11.1236L88.9265 11.3665C88.7901 11.9375 88.5302 12.4361 88.1467 12.8622C87.7674 13.2841 87.2816 13.6122 86.6893 13.8466C86.0969 14.0767 85.4194 14.1918 84.6566 14.1918ZM90.1618 6.08026V4.18182H98.7527V6.08026H95.5758V14H93.3386V6.08026H90.1618ZM102.161 7.37784H105.057C106.31 7.37784 107.279 7.68253 107.965 8.2919C108.651 8.90128 108.996 9.70028 109.001 10.6889C108.996 11.3324 108.839 11.9034 108.528 12.402C108.221 12.9006 107.773 13.2926 107.185 13.5781C106.602 13.8594 105.892 14 105.057 14H100.595V4.18182H102.826V12.1016H105.057C105.56 12.1016 105.973 11.9737 106.297 11.718C106.621 11.4581 106.783 11.1257 106.783 10.7209C106.783 10.2947 106.621 9.94744 106.297 9.67898C105.973 9.41051 105.56 9.27628 105.057 9.27628H102.161V7.37784ZM115.449 14V4.18182H119.572C120.735 4.18182 121.653 4.41406 122.327 4.87855C123.004 5.34304 123.343 5.99077 123.343 6.82173C123.343 7.37145 123.151 7.82102 122.768 8.17045C122.388 8.51562 121.871 8.74787 121.214 8.86719C121.73 8.9098 122.182 9.03977 122.569 9.2571C122.961 9.47443 123.268 9.75994 123.49 10.1136C123.711 10.4673 123.822 10.8743 123.822 11.3345C123.822 11.8757 123.68 12.3466 123.394 12.7472C123.113 13.1435 122.702 13.4524 122.16 13.674C121.623 13.8913 120.971 14 120.204 14H115.449ZM117.616 12.1783H120.204C120.631 12.1783 120.965 12.0781 121.208 11.8778C121.451 11.6733 121.572 11.3963 121.572 11.0469C121.572 10.642 121.451 10.3246 121.208 10.0945C120.965 9.86009 120.631 9.7429 120.204 9.7429H117.616V12.1783ZM117.616 8.24716H119.616C119.932 8.24716 120.202 8.20241 120.428 8.11293C120.654 8.01918 120.827 7.8892 120.946 7.72301C121.065 7.55256 121.125 7.35014 121.125 7.11577C121.125 6.77912 120.986 6.51491 120.709 6.32315C120.437 6.13139 120.057 6.03551 119.572 6.03551H117.616V8.24716ZM130.015 14.1918C129.034 14.1918 128.193 13.9766 127.49 13.5462C126.791 13.1158 126.252 12.5213 125.873 11.7628C125.498 11 125.31 10.1222 125.31 9.12926C125.31 8.1321 125.502 7.25213 125.885 6.48935C126.269 5.7223 126.81 5.12571 127.509 4.69957C128.212 4.26918 129.043 4.05398 130.002 4.05398C130.799 4.05398 131.504 4.20099 132.118 4.49503C132.735 4.7848 133.228 5.19602 133.594 5.72869C133.961 6.2571 134.169 6.875 134.221 7.58239H132.009C131.919 7.10937 131.706 6.7152 131.37 6.39986C131.037 6.08026 130.592 5.92045 130.034 5.92045C129.561 5.92045 129.145 6.0483 128.787 6.30398C128.429 6.5554 128.15 6.91761 127.95 7.39062C127.754 7.86364 127.656 8.4304 127.656 9.09091C127.656 9.75994 127.754 10.3352 127.95 10.8168C128.146 11.294 128.421 11.6626 128.775 11.9226C129.132 12.1783 129.552 12.3061 130.034 12.3061C130.375 12.3061 130.679 12.2422 130.948 12.1143C131.221 11.9822 131.449 11.7926 131.632 11.5455C131.815 11.2983 131.941 10.9979 132.009 10.6442H134.221C134.165 11.3388 133.961 11.9545 133.607 12.4915C133.253 13.0241 132.772 13.4418 132.162 13.7443C131.553 14.0426 130.837 14.1918 130.015 14.1918ZM140.467 14.1918C139.483 14.1918 138.633 13.9872 137.917 13.5781C137.205 13.1648 136.657 12.581 136.274 11.8267C135.89 11.0682 135.699 10.1754 135.699 9.14844C135.699 8.13849 135.89 7.25213 136.274 6.48935C136.662 5.7223 137.203 5.12571 137.898 4.69957C138.592 4.26918 139.408 4.05398 140.346 4.05398C140.951 4.05398 141.522 4.15199 142.059 4.34801C142.6 4.53977 143.077 4.83807 143.491 5.2429C143.908 5.64773 144.236 6.16335 144.475 6.78977C144.714 7.41193 144.833 8.15341 144.833 9.0142V9.72372H136.785V8.16406H142.615C142.611 7.72088 142.515 7.3267 142.327 6.98153C142.14 6.6321 141.878 6.35724 141.541 6.15696C141.209 5.95668 140.821 5.85653 140.378 5.85653C139.905 5.85653 139.489 5.97159 139.131 6.2017C138.773 6.42756 138.494 6.72585 138.294 7.09659C138.098 7.46307 137.998 7.86577 137.993 8.30469V9.66619C137.993 10.2372 138.098 10.7273 138.307 11.1364C138.515 11.5412 138.807 11.8523 139.182 12.0696C139.557 12.2827 139.996 12.3892 140.499 12.3892C140.836 12.3892 141.14 12.3423 141.413 12.2486C141.686 12.1506 141.922 12.0078 142.123 11.8203C142.323 11.6328 142.474 11.4006 142.577 11.1236L144.737 11.3665C144.601 11.9375 144.341 12.4361 143.957 12.8622C143.578 13.2841 143.092 13.6122 142.5 13.8466C141.907 14.0767 141.23 14.1918 140.467 14.1918ZM150.718 6.08026V4.18182H159.309V6.08026H156.132V14H153.895V6.08026H150.718ZM165.03 14.1918C164.071 14.1918 163.24 13.9808 162.537 13.5589C161.834 13.1371 161.289 12.5469 160.901 11.7884C160.517 11.0298 160.326 10.1435 160.326 9.12926C160.326 8.11506 160.517 7.22656 160.901 6.46378C161.289 5.70099 161.834 5.10866 162.537 4.68679C163.24 4.26491 164.071 4.05398 165.03 4.05398C165.989 4.05398 166.82 4.26491 167.523 4.68679C168.226 5.10866 168.77 5.70099 169.153 6.46378C169.541 7.22656 169.735 8.11506 169.735 9.12926C169.735 10.1435 169.541 11.0298 169.153 11.7884C168.77 12.5469 168.226 13.1371 167.523 13.5589C166.82 13.9808 165.989 14.1918 165.03 14.1918ZM165.043 12.3381C165.563 12.3381 165.998 12.1953 166.347 11.9098C166.696 11.62 166.956 11.2322 167.127 10.7464C167.301 10.2607 167.389 9.71946 167.389 9.12287C167.389 8.52202 167.301 7.97869 167.127 7.4929C166.956 7.00284 166.696 6.61293 166.347 6.32315C165.998 6.03338 165.563 5.88849 165.043 5.88849C164.51 5.88849 164.067 6.03338 163.713 6.32315C163.364 6.61293 163.102 7.00284 162.927 7.4929C162.757 7.97869 162.672 8.52202 162.672 9.12287C162.672 9.71946 162.757 10.2607 162.927 10.7464C163.102 11.2322 163.364 11.62 163.713 11.9098C164.067 12.1953 164.51 12.3381 165.043 12.3381ZM171.699 14V4.18182H175.822C176.985 4.18182 177.903 4.41406 178.577 4.87855C179.254 5.34304 179.593 5.99077 179.593 6.82173C179.593 7.37145 179.401 7.82102 179.018 8.17045C178.638 8.51562 178.121 8.74787 177.464 8.86719C177.98 8.9098 178.432 9.03977 178.819 9.2571C179.211 9.47443 179.518 9.75994 179.74 10.1136C179.961 10.4673 180.072 10.8743 180.072 11.3345C180.072 11.8757 179.93 12.3466 179.644 12.7472C179.363 13.1435 178.952 13.4524 178.41 13.674C177.873 13.8913 177.221 14 176.454 14H171.699ZM173.866 12.1783H176.454C176.881 12.1783 177.215 12.0781 177.458 11.8778C177.701 11.6733 177.822 11.3963 177.822 11.0469C177.822 10.642 177.701 10.3246 177.458 10.0945C177.215 9.86009 176.881 9.7429 176.454 9.7429H173.866V12.1783ZM173.866 8.24716H175.866C176.182 8.24716 176.452 8.20241 176.678 8.11293C176.904 8.01918 177.077 7.8892 177.196 7.72301C177.315 7.55256 177.375 7.35014 177.375 7.11577C177.375 6.77912 177.236 6.51491 176.959 6.32315C176.687 6.13139 176.307 6.03551 175.822 6.03551H173.866V8.24716ZM184.807 14.1982C184.185 14.1982 183.625 14.0874 183.126 13.8658C182.632 13.6399 182.24 13.3075 181.95 12.8686C181.664 12.4297 181.522 11.8885 181.522 11.245C181.522 10.6911 181.624 10.233 181.828 9.87074C182.033 9.50852 182.312 9.21875 182.666 9.00142C183.02 8.78409 183.418 8.62003 183.861 8.50923C184.309 8.39418 184.771 8.31108 185.248 8.25994C185.824 8.20028 186.29 8.14702 186.648 8.10014C187.006 8.04901 187.266 7.9723 187.428 7.87003C187.594 7.76349 187.677 7.59943 187.677 7.37784V7.33949C187.677 6.85795 187.534 6.48509 187.249 6.22088C186.963 5.95668 186.552 5.82457 186.015 5.82457C185.449 5.82457 184.999 5.94815 184.667 6.19531C184.338 6.44247 184.117 6.73437 184.002 7.07102L181.841 6.7642C182.012 6.16761 182.293 5.66903 182.685 5.26847C183.077 4.86364 183.556 4.56108 184.123 4.3608C184.69 4.15625 185.316 4.05398 186.002 4.05398C186.475 4.05398 186.946 4.10938 187.415 4.22017C187.884 4.33097 188.312 4.5142 188.7 4.76989C189.088 5.02131 189.399 5.36435 189.633 5.79901C189.872 6.23366 189.991 6.77699 189.991 7.42898V14H187.767V12.6513H187.69C187.549 12.924 187.351 13.1797 187.096 13.4183C186.844 13.6527 186.527 13.8423 186.143 13.9872C185.764 14.1278 185.319 14.1982 184.807 14.1982ZM185.408 12.4979C185.873 12.4979 186.275 12.4062 186.616 12.223C186.957 12.0355 187.219 11.7884 187.402 11.4815C187.59 11.1747 187.684 10.8402 187.684 10.478V9.32102C187.611 9.38068 187.488 9.43608 187.313 9.48722C187.142 9.53835 186.951 9.5831 186.738 9.62145C186.525 9.6598 186.314 9.69389 186.105 9.72372C185.896 9.75355 185.715 9.77912 185.561 9.80043C185.216 9.8473 184.907 9.92401 184.635 10.0305C184.362 10.1371 184.147 10.2862 183.989 10.478C183.831 10.6655 183.752 10.9084 183.752 11.2067C183.752 11.6328 183.908 11.9545 184.219 12.1719C184.53 12.3892 184.926 12.4979 185.408 12.4979ZM192.318 17.6818V4.18182H194.593V5.8054H194.728C194.847 5.56676 195.015 5.31321 195.233 5.04474C195.45 4.77202 195.744 4.53977 196.115 4.34801C196.485 4.15199 196.958 4.05398 197.534 4.05398C198.292 4.05398 198.976 4.24787 199.586 4.63565C200.199 5.01918 200.685 5.58807 201.043 6.34233C201.405 7.09233 201.586 8.01278 201.586 9.10369C201.586 10.1818 201.409 11.098 201.056 11.8523C200.702 12.6065 200.221 13.1818 199.611 13.5781C199.002 13.9744 198.311 14.1726 197.54 14.1726C196.978 14.1726 196.511 14.0788 196.14 13.8913C195.77 13.7038 195.471 13.478 195.245 13.2138C195.024 12.9453 194.851 12.6918 194.728 12.4531H194.632V17.6818H192.318ZM194.587 9.09091C194.587 9.72585 194.676 10.282 194.855 10.7592C195.039 11.2365 195.301 11.6094 195.642 11.8778C195.987 12.142 196.404 12.2741 196.895 12.2741C197.406 12.2741 197.834 12.1378 198.179 11.8651C198.525 11.5881 198.784 11.2109 198.959 10.7337C199.138 10.2521 199.228 9.70455 199.228 9.09091C199.228 8.48153 199.14 7.94034 198.966 7.46733C198.791 6.99432 198.531 6.62358 198.186 6.35511C197.841 6.08665 197.41 5.95241 196.895 5.95241C196.4 5.95241 195.98 6.08239 195.635 6.34233C195.29 6.60227 195.028 6.96662 194.849 7.43537C194.674 7.90412 194.587 8.45597 194.587 9.09091ZM205.134 7.37784H208.029C209.282 7.37784 210.252 7.68253 210.938 8.2919C211.624 8.90128 211.969 9.70028 211.973 10.6889C211.969 11.3324 211.811 11.9034 211.5 12.402C211.194 12.9006 210.746 13.2926 210.158 13.5781C209.574 13.8594 208.865 14 208.029 14H203.568V4.18182H205.799V12.1016H208.029C208.532 12.1016 208.946 11.9737 209.27 11.718C209.593 11.4581 209.755 11.1257 209.755 10.7209C209.755 10.2947 209.593 9.94744 209.27 9.67898C208.946 9.41051 208.532 9.27628 208.029 9.27628H205.134V7.37784ZM213.194 14V4.18182H215.508V14H213.194Z" fill="#F0BA4E"/>
</svg>
